<svg width="256" height="256" viewBox="0 0 256 256" fill="none" xmlns="http://www.w3.org/2000/svg">
<circle cx="127.5" cy="127.5" r="118.5" fill="#FF8C00"/>
<mask id="mask0_576_419" style="mask-type:luminance" maskUnits="userSpaceOnUse" x="53" y="66" width="149" height="159">
<path d="M201.562 66.7102H53.4375V224.301H201.562V66.7102Z" fill="white"/>
</mask>
<g mask="url(#mask0_576_419)">
<path d="M193.98 146.273L187.047 139.866V200.333C187.047 210.508 179.267 218.785 169.704 218.785H148.868C150.617 216.878 152.471 214.76 154.335 212.469C155.97 210.463 157.493 208.467 158.91 206.484H169.703C172.89 206.484 175.484 203.725 175.484 200.333V129.184L127.5 84.8501L79.5149 129.184V200.333C79.5149 203.725 82.1083 206.484 85.2961 206.484H96.0901C97.5059 208.465 99.0291 210.463 100.665 212.469C102.529 214.758 104.383 216.878 106.131 218.785H85.2961C75.7334 218.785 67.9525 210.508 67.9525 200.333V139.866L61.0184 146.273L53.4375 136.985L127.5 68.5573L201.562 136.985L193.98 146.273ZM127.5 160.017C122.711 160.017 118.827 164.147 118.827 169.242C118.827 174.338 122.711 178.469 127.5 178.469C132.289 178.469 136.173 174.338 136.173 169.242C136.173 164.147 132.289 160.017 127.5 160.017ZM160.735 171.108C160.735 180.873 155.642 192.078 145.597 204.414C138.485 213.147 131.445 219.273 131.149 219.53L127.5 222.69L123.85 219.53C123.554 219.273 116.514 213.147 109.402 204.414C99.3569 192.078 94.2638 180.873 94.2638 171.108V169.266C94.2638 149.768 109.173 133.906 127.5 133.906C145.826 133.906 160.735 149.768 160.735 169.266V171.108ZM149.173 169.266C149.173 156.552 139.45 146.207 127.5 146.207C115.549 146.207 105.827 156.552 105.827 169.266V171.109C105.827 177.639 110.2 186.608 118.142 196.359C121.585 200.588 125.035 204.164 127.516 206.593C135.791 198.52 149.172 182.968 149.172 171.109L149.173 169.266Z" fill="white"/>
</g>
</svg>
