<svg width="158" height="45" viewBox="0 0 158 45" fill="none" xmlns="http://www.w3.org/2000/svg">
<circle cx="22.5" cy="22.5" r="22.5" fill="#FF8C00"/>
<mask id="mask0_445_528" style="mask-type:luminance" maskUnits="userSpaceOnUse" x="8" y="10" width="29" height="31">
<path d="M36.5625 10.9575H8.4375V40.8797H36.5625V10.9575Z" fill="white"/>
</mask>
<g mask="url(#mask0_445_528)">
<path d="M35.1229 26.0643L33.8065 24.8478V36.3288C33.8065 38.2608 32.3291 39.8323 30.5134 39.8323H26.5573C26.8894 39.4703 27.2413 39.0681 27.5953 38.6332C27.9056 38.2522 28.1948 37.8732 28.4639 37.4968H30.5132C31.1184 37.4968 31.611 36.9728 31.611 36.3288V22.8194L22.5 14.4017L13.3889 22.8194V36.3288C13.3889 36.9728 13.8813 37.4968 14.4866 37.4968H16.5361C16.8049 37.8729 17.0941 38.2522 17.4047 38.6332C17.7587 39.0678 18.1106 39.4703 18.4426 39.8323H14.4866C12.6709 39.8323 11.1935 38.2608 11.1935 36.3288V24.8478L9.87691 26.0643L8.4375 24.3007L22.5 11.3081L36.5625 24.3007L35.1229 26.0643ZM22.5 28.6738C21.5906 28.6738 20.8533 29.4581 20.8533 30.4255C20.8533 31.393 21.5906 32.1774 22.5 32.1774C23.4094 32.1774 24.1467 31.393 24.1467 30.4255C24.1467 29.4581 23.4094 28.6738 22.5 28.6738ZM28.8104 30.7797C28.8104 32.6339 27.8434 34.7614 25.9361 37.1037C24.5857 38.7619 23.2491 39.9251 23.1928 39.9737L22.5 40.5738L21.807 39.9737C21.7507 39.9251 20.4141 38.7619 19.0637 37.1037C17.1564 34.7614 16.1893 32.6339 16.1893 30.7797V30.43C16.1893 26.7279 19.0202 23.7161 22.5 23.7161C25.9795 23.7161 28.8104 26.7279 28.8104 30.43V30.7797ZM26.6152 30.43C26.6152 28.0159 24.769 26.0518 22.5 26.0518C20.2309 26.0518 18.3848 28.0159 18.3848 30.43V30.78C18.3848 32.0199 19.2152 33.7227 20.7231 35.5743C21.3769 36.3772 22.032 37.0563 22.503 37.5175C24.0743 35.9846 26.6149 33.0316 26.6149 30.78L26.6152 30.43Z" fill="white"/>
</g>
<path fill-rule="evenodd" clip-rule="evenodd" d="M61.1308 38.8547H61.5062V39.8673H61.2281L61.1509 39.2144H59.2173L59.1401 39.8673H58.8626V38.8547H59.1658C59.1932 38.817 59.2292 38.7498 59.2738 38.6538C59.3183 38.5544 59.3614 38.4173 59.4025 38.2426C59.4471 38.0643 59.4846 37.8446 59.5155 37.584C59.5498 37.32 59.5708 37.0064 59.5776 36.643H61.1308V38.8547ZM59.9474 37.0027C59.9405 37.1467 59.9288 37.3046 59.9116 37.476C59.8945 37.644 59.8703 37.8138 59.8394 37.9852C59.812 38.1532 59.776 38.3127 59.7314 38.4636C59.6869 38.6144 59.6359 38.745 59.5776 38.8547H60.719V37.0027H59.9474Z" fill="black"/>
<path fill-rule="evenodd" clip-rule="evenodd" d="M57.4877 36.5814C57.6797 36.5814 57.8463 36.6136 57.9868 36.6787C58.1308 36.7405 58.2489 36.8318 58.3415 36.9518C58.434 37.0683 58.5029 37.2103 58.5474 37.3781C58.592 37.5427 58.6146 37.7264 58.6146 37.9287C58.6146 38.3639 58.5167 38.6981 58.3214 38.9313C58.1294 39.161 57.8512 39.2759 57.4877 39.2759C57.2959 39.2759 57.1281 39.2452 56.9842 39.1836C56.8438 39.1185 56.7271 39.0276 56.6346 38.9112C56.542 38.7912 56.4732 38.6488 56.4286 38.4843C56.3841 38.3163 56.3615 38.131 56.3615 37.9287C56.3615 37.4933 56.4577 37.1608 56.6496 36.9311C56.845 36.698 57.1244 36.5815 57.4877 36.5814ZM57.4877 36.9412C57.0216 36.9379 56.7884 37.2671 56.7884 37.9287C56.7884 38.059 56.8008 38.1841 56.8248 38.3041C56.8522 38.4241 56.893 38.5289 56.9478 38.618C57.0027 38.7071 57.0747 38.7791 57.1638 38.834C57.2529 38.8888 57.361 38.9161 57.4877 38.9162C57.954 38.9196 58.1877 38.5904 58.1877 37.9287C58.1877 37.795 58.1737 37.6682 58.1463 37.5482C58.1223 37.4283 58.0831 37.3235 58.0283 37.2343C57.9734 37.1452 57.9014 37.0748 57.8123 37.0234C57.7231 36.9685 57.6146 36.9412 57.4877 36.9412Z" fill="black"/>
<path fill-rule="evenodd" clip-rule="evenodd" d="M70.5903 36.5814C70.7788 36.5815 70.9385 36.6136 71.0687 36.6787C71.2023 36.7405 71.3104 36.8319 71.3926 36.9518C71.4782 37.0683 71.5402 37.2103 71.5778 37.3781C71.6156 37.5427 71.6343 37.7264 71.6343 37.9287C71.6343 38.364 71.5467 38.6981 71.3719 38.9313C71.2005 39.161 70.9362 39.2759 70.5797 39.2759C70.3946 39.2759 70.235 39.2485 70.1013 39.1937C69.9711 39.1354 69.863 39.0548 69.7773 38.952C69.6951 38.8457 69.6317 38.7189 69.5871 38.5715C69.546 38.4208 69.5202 38.2563 69.5099 38.0781H68.9957V39.2144H68.5845V36.643H68.9957V37.7177H69.5156C69.543 37.3509 69.6424 37.07 69.8138 36.8746C69.9886 36.6792 70.2475 36.5814 70.5903 36.5814ZM70.5847 36.9412C70.3483 36.9412 70.1768 37.0218 70.0705 37.1829C69.9677 37.3406 69.9167 37.5893 69.9167 37.9287C69.9167 38.0624 69.9269 38.1891 69.9475 38.3091C69.968 38.4291 70.004 38.5355 70.0555 38.628C70.1068 38.7171 70.1751 38.7876 70.2607 38.839C70.3499 38.8904 70.46 38.9162 70.5903 38.9162C70.8096 38.9161 70.9671 38.8371 71.0631 38.6795C71.1591 38.5184 71.2074 38.2681 71.2074 37.9287C71.2074 37.795 71.1972 37.6682 71.1767 37.5482C71.1595 37.4282 71.1268 37.3235 71.0788 37.2343C71.0308 37.1418 70.9673 37.0698 70.8885 37.0184C70.8097 36.967 70.7081 36.9412 70.5847 36.9412Z" fill="black"/>
<path d="M67.7929 39.2144H67.3811V37.0027H66.6359C66.6256 37.1467 66.6148 37.303 66.6045 37.471C66.5942 37.6356 66.5792 37.8021 66.5587 37.9701C66.5381 38.1345 66.5107 38.2937 66.4764 38.4479C66.4422 38.5986 66.3975 38.7325 66.3427 38.849C66.2913 38.9656 66.2257 39.0602 66.1468 39.1321C66.0714 39.2006 65.9806 39.2351 65.8744 39.2351C65.8093 39.2351 65.7528 39.2313 65.7049 39.2244C65.6569 39.2176 65.6139 39.2058 65.5762 39.1887L65.6377 38.844C65.6788 38.8577 65.7235 38.8647 65.7714 38.8647C65.8399 38.8647 65.9018 38.8356 65.9566 38.7774C66.0115 38.7192 66.0599 38.609 66.101 38.4479C66.1421 38.2833 66.1759 38.057 66.2033 37.7692C66.2308 37.4812 66.2502 37.1058 66.2605 36.643H67.7929V39.2144Z" fill="black"/>
<path d="M55.713 39.2144H55.3018V37.0027H54.1648V39.2144H53.7536V36.643H55.713V39.2144Z" fill="black"/>
<path d="M63.7976 37.805L64.0186 37.7334L64.8417 36.643H65.2893L64.492 37.6769L64.276 37.8464L64.5435 38.0524L65.4023 39.2144H64.8931L64.0343 38.0574H63.7976V39.2144H63.3864V36.643H63.7976V37.805Z" fill="black"/>
<path d="M72.5484 37.3423C72.5484 37.4349 72.5532 37.5193 72.5635 37.5947C72.5738 37.6666 72.5948 37.7301 72.6256 37.7849C72.6565 37.8362 72.7012 37.8772 72.7593 37.908C72.8176 37.9353 72.8945 37.9494 72.9904 37.9494C73.1445 37.9494 73.2714 37.9321 73.3708 37.8979C73.4702 37.8636 73.546 37.826 73.5974 37.7849V36.643H74.0086V39.2144H73.5974V38.1346C73.5426 38.1689 73.4603 38.2065 73.3507 38.2476C73.2444 38.2887 73.0967 38.3091 72.9081 38.3091C72.7814 38.3091 72.6701 38.2957 72.5741 38.2683C72.4781 38.2409 72.3976 38.1925 72.3324 38.1239C72.2673 38.0553 72.2173 37.9646 72.183 37.8515C72.1522 37.7383 72.1366 37.5959 72.1366 37.4246V36.643H72.5484V37.3423Z" fill="black"/>
<path fill-rule="evenodd" clip-rule="evenodd" d="M59.54 30.7957C59.8828 30.7957 60.1385 30.8967 60.3065 31.0989C60.4745 31.3012 60.5582 31.6321 60.5582 32.0915C60.5582 32.3075 60.5293 32.503 60.471 32.6778C60.4161 32.8492 60.3372 32.9948 60.2343 33.1148C60.1314 33.2348 60.0063 33.3278 59.8589 33.3929C59.715 33.458 59.5537 33.4902 59.3755 33.4902C59.2487 33.4902 59.1477 33.4816 59.0723 33.4645C59.0003 33.4507 58.9213 33.425 58.8356 33.3872V34.457H58.4244V30.8572H58.7069L58.7841 31.1661H58.8048C58.8837 31.0461 58.9847 30.9547 59.108 30.893C59.2348 30.8279 59.3789 30.7958 59.54 30.7957ZM59.4634 31.1554C59.2886 31.1554 59.1494 31.2017 59.0465 31.2942C58.9471 31.3833 58.8767 31.5209 58.8356 31.706V32.9811C58.8973 33.0291 58.9677 33.0673 59.0465 33.0947C59.1254 33.1187 59.2302 33.1305 59.3604 33.1305C59.5969 33.1304 59.7839 33.0429 59.921 32.8681C60.0615 32.6898 60.132 32.4292 60.132 32.0865C60.132 31.946 60.1195 31.8191 60.0956 31.706C60.0716 31.5895 60.0323 31.4917 59.9775 31.4128C59.9261 31.3306 59.8573 31.2672 59.7716 31.2226C59.6894 31.1781 59.5867 31.1555 59.4634 31.1554Z" fill="black"/>
<path fill-rule="evenodd" clip-rule="evenodd" d="M89.0348 33.069H89.4102V34.0816H89.1321L89.0549 33.4287H87.1213L87.0441 34.0816H86.7666V33.069H87.0698C87.0972 33.0312 87.1332 32.964 87.1778 32.8681C87.2224 32.7687 87.2654 32.6316 87.3065 32.4569C87.3511 32.2786 87.3886 32.0589 87.4195 31.7983C87.4538 31.5343 87.4748 31.2206 87.4817 30.8572H89.0348V33.069ZM87.8514 31.217C87.8446 31.361 87.8328 31.5189 87.8156 31.6903C87.7985 31.8583 87.7743 32.028 87.7434 32.1995C87.716 32.3675 87.68 32.527 87.6355 32.6778C87.5909 32.8287 87.5399 32.9593 87.4817 33.069H88.623V31.217H87.8514Z" fill="black"/>
<path d="M55.2088 29.7668C55.4146 29.7668 55.5827 29.7792 55.713 29.8032C55.8431 29.8237 55.9544 29.8528 56.0469 29.8904L55.9446 30.2659C55.78 30.187 55.5447 30.1478 55.2396 30.1478C55.0992 30.1479 54.9604 30.1731 54.8234 30.2244C54.6862 30.2759 54.5627 30.3602 54.453 30.4768C54.3467 30.5934 54.2607 30.7459 54.1956 30.9345C54.1305 31.123 54.0983 31.3546 54.0983 31.6288C54.0983 31.8756 54.1289 32.0916 54.1906 32.2767C54.2523 32.4618 54.3367 32.6159 54.4429 32.7394C54.5526 32.8628 54.6794 32.9558 54.8234 33.0175C54.9707 33.0791 55.1304 33.1098 55.3018 33.1098C55.4559 33.1097 55.5898 33.0941 55.7029 33.0633C55.8192 33.0325 55.9167 32.9932 55.9955 32.9453L56.0984 33.2793C55.9956 33.3581 55.8656 33.4135 55.7079 33.4444C55.5502 33.4752 55.3821 33.4902 55.2038 33.4902C54.9878 33.4902 54.7853 33.4542 54.5967 33.3822C54.4083 33.3068 54.2438 33.1939 54.1033 33.0432C53.9627 32.8924 53.851 32.7 53.7687 32.4669C53.6864 32.2304 53.6457 31.951 53.6456 31.6288C53.6456 31.2928 53.6902 31.0082 53.7794 30.775C53.8719 30.5384 53.9917 30.3461 54.1391 30.1987C54.2899 30.0479 54.4581 29.9383 54.6432 29.8697C54.8283 29.8012 55.0169 29.7668 55.2088 29.7668Z" fill="black"/>
<path fill-rule="evenodd" clip-rule="evenodd" d="M62.1886 30.7957C62.3806 30.7957 62.5472 30.8279 62.6877 30.893C62.8317 30.9547 62.9498 31.0461 63.0424 31.1661C63.1349 31.2826 63.2038 31.4245 63.2483 31.5924C63.2929 31.757 63.3155 31.9407 63.3155 32.143C63.3155 32.5782 63.2176 32.9124 63.0223 33.1455C62.8303 33.3753 62.552 33.4902 62.1886 33.4902C61.9968 33.4902 61.829 33.4595 61.6851 33.3979C61.5447 33.3328 61.428 33.2419 61.3354 33.1255C61.2429 33.0055 61.1741 32.8631 61.1295 32.6986C61.085 32.5306 61.0624 32.3452 61.0624 32.143C61.0624 31.7076 61.1586 31.3751 61.3505 31.1454C61.5459 30.9123 61.8253 30.7958 62.1886 30.7957ZM62.1886 31.1554C61.7225 31.1522 61.4893 31.4814 61.4893 32.143C61.4893 32.2732 61.5017 32.3984 61.5257 32.5184C61.5531 32.6384 61.5939 32.7431 61.6487 32.8323C61.7035 32.9214 61.7756 32.9934 61.8647 33.0482C61.9538 33.1031 62.0619 33.1304 62.1886 33.1305C62.6549 33.1339 62.8886 32.8047 62.8886 32.143C62.8886 32.0093 62.8746 31.8825 62.8472 31.7625C62.8232 31.6426 62.784 31.5378 62.7291 31.4486C62.6743 31.3595 62.6023 31.2891 62.5132 31.2377C62.424 31.1828 62.3155 31.1554 62.1886 31.1554Z" fill="black"/>
<path fill-rule="evenodd" clip-rule="evenodd" d="M69.7277 30.7957C69.8442 30.7957 69.9609 30.8091 70.0774 30.8365C70.1939 30.8605 70.2982 30.909 70.3907 30.9809C70.4833 31.0529 70.559 31.1555 70.6173 31.2892C70.6756 31.4195 70.7046 31.593 70.7046 31.809C70.7046 31.922 70.6944 32.0474 70.6738 32.1844H69.0227C69.0228 32.3351 69.0384 32.4691 69.0692 32.5856C69.1001 32.702 69.1479 32.8015 69.213 32.8838C69.2781 32.9626 69.3625 33.0244 69.4653 33.069C69.5715 33.11 69.7001 33.1305 69.8508 33.1305C69.9673 33.1305 70.084 33.11 70.2005 33.069C70.317 33.0278 70.4046 32.9794 70.4629 32.9246L70.6173 33.2228C70.5145 33.305 70.3839 33.3706 70.2262 33.4186C70.072 33.4666 69.9075 33.4902 69.7328 33.4902C69.5374 33.4902 69.3676 33.4596 69.2236 33.3979C69.0797 33.3328 68.9615 33.2419 68.8689 33.1255C68.7764 33.0055 68.7076 32.8631 68.663 32.6986C68.6184 32.534 68.5958 32.3487 68.5958 32.143C68.5958 31.7043 68.6937 31.3701 68.889 31.1404C69.0844 30.9107 69.3643 30.7957 69.7277 30.7957ZM69.7328 31.1554C69.5306 31.1554 69.3678 31.2087 69.2444 31.3149C69.1244 31.4212 69.0524 31.6028 69.0284 31.8598H70.3034C70.3034 31.5995 70.254 31.4177 70.1546 31.3149C70.0552 31.2086 69.9144 31.1555 69.7328 31.1554Z" fill="black"/>
<path d="M77.125 30.7957C77.2896 30.7957 77.4287 30.8091 77.5419 30.8365C77.6582 30.8605 77.7627 30.8966 77.8551 30.9445L77.7371 31.2998C77.6582 31.2553 77.5707 31.2209 77.4747 31.1969C77.3788 31.1695 77.276 31.1555 77.1664 31.1554C76.6796 31.1554 76.4357 31.4847 76.4357 32.143C76.4357 32.2732 76.4481 32.3984 76.4721 32.5184C76.4995 32.6349 76.5419 32.7397 76.6002 32.8323C76.6619 32.9214 76.7409 32.9934 76.8368 33.0482C76.9363 33.1031 77.0582 33.1305 77.2022 33.1305C77.3256 33.1305 77.4352 33.1116 77.5312 33.074C77.6305 33.0363 77.7112 32.9932 77.7729 32.9453L77.9066 33.2592C77.8038 33.3345 77.6822 33.391 77.5419 33.4287C77.4013 33.4698 77.2535 33.4902 77.0993 33.4902C76.9004 33.4902 76.7323 33.4596 76.5951 33.3979C76.4581 33.3328 76.3452 33.2419 76.2561 33.1255C76.1705 33.0055 76.1071 32.863 76.0659 32.6986C76.0282 32.5306 76.0088 32.3452 76.0088 32.143C76.0088 31.7076 76.105 31.3751 76.2969 31.1454C76.4889 30.9123 76.765 30.7957 77.125 30.7957Z" fill="black"/>
<path fill-rule="evenodd" clip-rule="evenodd" d="M83.9905 30.7957C84.1825 30.7957 84.3491 30.8279 84.4896 30.893C84.6336 30.9547 84.7517 31.0461 84.8443 31.1661C84.9368 31.2826 85.0057 31.4245 85.0502 31.5924C85.0948 31.757 85.1174 31.9407 85.1174 32.143C85.1174 32.5782 85.0195 32.9124 84.8242 33.1455C84.6322 33.3753 84.3539 33.4902 83.9905 33.4902C83.7987 33.4902 83.6309 33.4595 83.487 33.3979C83.3466 33.3328 83.2299 33.2419 83.1373 33.1255C83.0448 33.0055 82.976 32.8631 82.9314 32.6986C82.8869 32.5306 82.8643 32.3452 82.8643 32.143C82.8643 31.7076 82.9605 31.3751 83.1524 31.1454C83.3478 30.9123 83.6272 30.7958 83.9905 30.7957ZM83.9905 31.1554C83.5244 31.1522 83.2912 31.4814 83.2912 32.143C83.2912 32.2732 83.3036 32.3984 83.3276 32.5184C83.355 32.6384 83.3958 32.7431 83.4506 32.8323C83.5054 32.9214 83.5775 32.9934 83.6666 33.0482C83.7556 33.1031 83.8638 33.1304 83.9905 33.1305C84.4568 33.1339 84.6905 32.8047 84.6905 32.143C84.6905 32.0093 84.6765 31.8825 84.6491 31.7625C84.6251 31.6426 84.5859 31.5378 84.531 31.4486C84.4762 31.3595 84.4042 31.2891 84.3151 31.2377C84.2259 31.1828 84.1174 31.1554 83.9905 31.1554Z" fill="black"/>
<path fill-rule="evenodd" clip-rule="evenodd" d="M90.9012 30.7957C91.0932 30.7957 91.2598 30.8279 91.4003 30.893C91.5443 30.9547 91.6624 31.0461 91.755 31.1661C91.8475 31.2826 91.9164 31.4245 91.9609 31.5924C92.0055 31.757 92.0281 31.9407 92.0281 32.143C92.0281 32.5782 91.9302 32.9124 91.7349 33.1455C91.5429 33.3753 91.2647 33.4902 90.9012 33.4902C90.7094 33.4902 90.5416 33.4595 90.3977 33.3979C90.2573 33.3328 90.1406 33.2419 90.0481 33.1255C89.9555 33.0055 89.8867 32.8631 89.8421 32.6986C89.7976 32.5306 89.775 32.3452 89.775 32.143C89.775 31.7076 89.8712 31.3751 90.0631 31.1454C90.2585 30.9123 90.5379 30.7958 90.9012 30.7957ZM90.9012 31.1554C90.4351 31.1522 90.2019 31.4814 90.2019 32.143C90.2019 32.2732 90.2143 32.3984 90.2383 32.5184C90.2657 32.6384 90.3065 32.7431 90.3613 32.8323C90.4162 32.9214 90.4882 32.9934 90.5773 33.0482C90.6664 33.1031 90.7745 33.1304 90.9012 33.1305C91.3675 33.1339 91.6012 32.8047 91.6012 32.143C91.6012 32.0093 91.5872 31.8825 91.5598 31.7625C91.5358 31.6426 91.4966 31.5378 91.4418 31.4486C91.3869 31.3595 91.3149 31.2891 91.2258 31.2377C91.1367 31.1828 91.0281 31.1554 90.9012 31.1554Z" fill="black"/>
<path fill-rule="evenodd" clip-rule="evenodd" d="M96.9732 30.7957C97.1652 30.7957 97.3318 30.8279 97.4723 30.893C97.6163 30.9547 97.7344 31.0461 97.827 31.1661C97.9195 31.2826 97.9884 31.4245 98.0329 31.5924C98.0775 31.757 98.1001 31.9407 98.1001 32.143C98.1001 32.5782 98.0022 32.9124 97.8069 33.1455C97.6149 33.3753 97.3366 33.4902 96.9732 33.4902C96.7814 33.4902 96.6136 33.4595 96.4697 33.3979C96.3293 33.3328 96.2126 33.2419 96.12 33.1255C96.0275 33.0055 95.9587 32.8631 95.9141 32.6986C95.8696 32.5306 95.847 32.3452 95.847 32.143C95.847 31.7076 95.9432 31.3751 96.1351 31.1454C96.3305 30.9123 96.6099 30.7958 96.9732 30.7957ZM96.9732 31.1554C96.5071 31.1522 96.2739 31.4814 96.2739 32.143C96.2739 32.2732 96.2863 32.3984 96.3103 32.5184C96.3377 32.6384 96.3785 32.7431 96.4333 32.8323C96.4881 32.9214 96.5602 32.9934 96.6493 33.0482C96.7383 33.1031 96.8465 33.1304 96.9732 33.1305C97.4395 33.1339 97.6732 32.8047 97.6732 32.143C97.6732 32.0093 97.6592 31.8825 97.6318 31.7625C97.6078 31.6426 97.5686 31.5378 97.5137 31.4486C97.4589 31.3595 97.3869 31.2891 97.2978 31.2377C97.2086 31.1828 97.1001 31.1554 96.9732 31.1554Z" fill="black"/>
<path fill-rule="evenodd" clip-rule="evenodd" d="M81.3111 30.8215C81.6505 30.8215 81.8938 30.8747 82.0412 30.9809C82.1886 31.0838 82.2628 31.2412 82.2628 31.4536C82.2628 31.5736 82.2269 31.6924 82.1549 31.809C82.0863 31.922 81.9712 32.0059 81.8102 32.0607V32.0814C82.0124 32.1192 82.1548 32.1895 82.2371 32.2924C82.3193 32.3952 82.3601 32.5323 82.3601 32.7036C82.3601 32.971 82.2646 33.1649 82.0726 33.2849C81.8806 33.4049 81.5921 33.4645 81.2081 33.4645C81.0642 33.4645 80.9303 33.4597 80.807 33.4494C80.6837 33.4425 80.5621 33.4339 80.4422 33.4237V30.8623C80.5622 30.8554 80.6874 30.8468 80.8177 30.8365C80.9513 30.8263 81.1158 30.8215 81.3111 30.8215ZM80.8534 33.084C80.9185 33.0909 80.982 33.0963 81.0437 33.0997C81.1088 33.1031 81.1846 33.1047 81.2703 33.1047C81.4999 33.1047 81.6698 33.0719 81.7794 33.0068C81.8924 32.9417 81.9489 32.8304 81.9489 32.6728C81.9489 32.5495 81.901 32.45 81.8052 32.3746C81.7126 32.2958 81.5461 32.256 81.3061 32.256H80.8534V33.084ZM81.0336 31.1862C80.9719 31.1896 80.9117 31.1935 80.8534 31.1969V31.9427H81.3576C81.4193 31.9427 81.4795 31.9319 81.5377 31.9113C81.5959 31.8908 81.6471 31.8633 81.6915 31.8291C81.7395 31.7914 81.7777 31.7484 81.8052 31.7004C81.8359 31.6525 81.851 31.6012 81.851 31.5466C81.851 31.4094 81.8102 31.3149 81.728 31.2634C81.6457 31.2086 81.5016 31.1812 81.296 31.1812C81.1864 31.1812 81.0988 31.1828 81.0336 31.1862Z" fill="black"/>
<path fill-rule="evenodd" clip-rule="evenodd" d="M99.6175 30.8215C99.9568 30.8215 100.2 30.8747 100.348 30.9809C100.495 31.0838 100.569 31.2412 100.569 31.4536C100.569 31.5736 100.533 31.6924 100.461 31.809C100.393 31.922 100.278 32.0059 100.117 32.0607V32.0814C100.319 32.1192 100.461 32.1895 100.543 32.2924C100.626 32.3952 100.667 32.5323 100.667 32.7036C100.666 32.971 100.571 33.1649 100.379 33.2849C100.187 33.4049 99.8985 33.4645 99.5145 33.4645C99.3706 33.4645 99.2367 33.4597 99.1133 33.4494C98.9901 33.4425 98.8685 33.4339 98.7486 33.4237V30.8623C98.8686 30.8554 98.9938 30.8468 99.124 30.8365C99.2577 30.8263 99.4222 30.8215 99.6175 30.8215ZM99.1598 33.084C99.2249 33.0909 99.2884 33.0963 99.35 33.0997C99.4152 33.1031 99.4909 33.1047 99.5767 33.1047C99.8063 33.1047 99.9761 33.0719 100.086 33.0068C100.199 32.9417 100.255 32.8304 100.255 32.6728C100.255 32.5495 100.207 32.45 100.112 32.3746C100.019 32.2958 99.8524 32.256 99.6124 32.256H99.1598V33.084ZM99.34 31.1862C99.2783 31.1896 99.2181 31.1935 99.1598 31.1969V31.9427H99.6639C99.7256 31.9427 99.7858 31.9319 99.8441 31.9113C99.9022 31.8908 99.9534 31.8633 99.9979 31.8291C100.046 31.7914 100.084 31.7484 100.112 31.7004C100.142 31.6525 100.157 31.6012 100.157 31.5466C100.157 31.4094 100.117 31.3149 100.034 31.2634C99.9521 31.2086 99.808 31.1812 99.6024 31.1812C99.4927 31.1812 99.4051 31.1828 99.34 31.1862Z" fill="black"/>
<path fill-rule="evenodd" clip-rule="evenodd" d="M74.234 31.8397C74.3163 31.826 74.3953 31.8174 74.4707 31.814C74.5461 31.8071 74.6181 31.8033 74.6867 31.8033C74.8649 31.8033 75.0159 31.8243 75.1393 31.8655C75.2627 31.9032 75.3621 31.9564 75.4375 32.0249C75.5163 32.0935 75.5727 32.1757 75.607 32.2717C75.6413 32.3642 75.6585 32.4636 75.6585 32.5699C75.6585 32.8817 75.5644 33.1079 75.376 33.2485C75.1908 33.3891 74.9008 33.4594 74.5065 33.4594C74.2872 33.4594 74.0593 33.4492 73.8228 33.4287V30.8572H74.234V31.8397ZM74.4242 32.148C74.3557 32.1514 74.2923 32.1616 74.234 32.1787V33.069C74.3609 33.0895 74.4828 33.0997 74.5994 33.0997C74.8153 33.0997 74.9749 33.0583 75.0778 32.976C75.1805 32.8904 75.2315 32.7704 75.2316 32.6163C75.2316 32.4792 75.1822 32.3658 75.0828 32.2767C74.9834 32.1875 74.827 32.143 74.6145 32.143C74.5562 32.143 74.4927 32.1446 74.4242 32.148Z" fill="black"/>
<path d="M73.0312 33.4287H72.6194V31.217H71.8742C71.8639 31.361 71.8531 31.5173 71.8428 31.6853C71.8325 31.8498 71.8175 32.0164 71.7969 32.1844C71.7764 32.3488 71.7489 32.508 71.7147 32.6621C71.6804 32.8129 71.6358 32.9468 71.581 33.0633C71.5296 33.1799 71.464 33.2744 71.3851 33.3464C71.3097 33.4149 71.2189 33.4494 71.1127 33.4494C71.0476 33.4494 70.9911 33.4456 70.9431 33.4387C70.8951 33.4319 70.8522 33.4201 70.8145 33.4029L70.876 33.0583C70.9171 33.072 70.9618 33.079 71.0097 33.079C71.0782 33.079 71.1401 33.0499 71.1949 32.9917C71.2498 32.9334 71.2981 32.8233 71.3393 32.6621C71.3804 32.4976 71.4142 32.2713 71.4416 31.9835C71.469 31.6955 71.4885 31.3201 71.4987 30.8572H73.0312V33.4287Z" fill="black"/>
<path d="M58.0157 31.217H57.2084V33.4287H56.7972V31.217H55.9892V30.8572H58.0157V31.217Z" fill="black"/>
<path d="M64.3752 32.4261L64.3601 32.7293H64.3802L64.5811 32.4104L65.7381 30.8572H65.9798V33.4287H65.5686V31.9063L65.5837 31.5874H65.5686L65.3577 31.917L64.2007 33.4287H63.964V30.8572H64.3752V32.4261Z" fill="black"/>
<path d="M68.4119 31.217H67.6046V33.4287H67.1934V31.217H66.3854V30.8572H68.4119V31.217Z" fill="black"/>
<path d="M80.0336 31.217H79.2262V33.4287H78.815V31.217H78.007V30.8572H80.0336V31.217Z" fill="black"/>
<path d="M93.8029 32.0092L93.9517 32.3074H93.9623L94.1168 31.9992L94.7904 30.8572H95.2016V33.4287H94.8004V31.9013L94.8312 31.4128H94.8055L94.6203 31.809L93.9981 32.8166H93.8544L93.2065 31.809L93.0363 31.4128H93.0156L93.0571 31.8962V33.4287H92.6766V30.8572H93.0828L93.8029 32.0092Z" fill="black"/>
<path d="M72.6733 18.3058L75.7997 10.7899H78.886L73.8869 22.5359C73.5303 23.4273 73.1189 24.1272 72.6526 24.6346C72.2001 25.142 71.6925 25.4986 71.1302 25.7043C70.5817 25.91 69.9715 26.0126 69.2996 26.0126C68.7236 26.0126 68.1543 25.9234 67.592 25.7452C67.0297 25.5669 66.57 25.3204 66.2134 25.005L67.3861 22.7211C67.6329 22.9405 67.9144 23.1118 68.2298 23.2352C68.559 23.3587 68.8812 23.4204 69.1966 23.4204C69.6492 23.4204 70.0058 23.3109 70.2664 23.0915C70.5406 22.8858 70.7872 22.536 71.0066 22.0424L71.0455 21.9495L66.2548 10.7899H69.567L72.6733 18.3058Z" fill="black"/>
<path fill-rule="evenodd" clip-rule="evenodd" d="M124.381 10.6255C125.424 10.6255 126.356 10.8655 127.179 11.3455C128.016 11.8118 128.674 12.4699 129.154 13.3199C129.647 14.1702 129.894 15.1714 129.895 16.3233C129.895 17.489 129.647 18.4971 129.154 19.3473C128.674 20.1975 128.016 20.8561 127.179 21.3224C126.356 21.7887 125.424 22.0217 124.381 22.0217C123.449 22.0217 122.633 21.816 121.934 21.4046C121.605 21.2116 121.311 20.9712 121.049 20.6845V25.8481H117.84V10.7899H120.905V12.0687C121.181 11.7346 121.503 11.459 121.871 11.2426C122.571 10.8311 123.408 10.6255 124.381 10.6255ZM123.826 13.2584C123.291 13.2584 122.811 13.382 122.386 13.6288C121.961 13.8757 121.625 14.2253 121.378 14.6778C121.131 15.1304 121.008 15.6788 121.008 16.3233C121.008 16.9541 121.131 17.5031 121.378 17.9693C121.625 18.4219 121.961 18.7715 122.386 19.0184C122.811 19.2651 123.291 19.3887 123.826 19.3888C124.36 19.3888 124.834 19.2652 125.245 19.0184C125.67 18.7715 126.006 18.4219 126.253 17.9693C126.514 17.5031 126.644 16.9541 126.644 16.3233C126.644 15.6788 126.514 15.1303 126.253 14.6778C126.006 14.2253 125.67 13.8757 125.245 13.6288C124.834 13.382 124.361 13.2584 123.826 13.2584Z" fill="black"/>
<path d="M99.3029 7.21027C100.551 7.21029 101.676 7.42998 102.677 7.86883C103.691 8.29394 104.542 8.92454 105.227 9.76099L103.088 11.736C102.594 11.1738 102.046 10.7553 101.442 10.4811C100.839 10.1931 100.181 10.0491 99.4674 10.0491C98.7955 10.0491 98.1783 10.1587 97.6161 10.3781C97.0538 10.5975 96.5666 10.9134 96.1552 11.3248C95.7439 11.7362 95.4215 12.2229 95.1884 12.7851C94.969 13.3473 94.8595 13.9715 94.8594 14.6571C94.8594 15.3428 94.969 15.9669 95.1884 16.5292C95.4216 17.0915 95.7438 17.5786 96.1552 17.9901C96.5666 18.4015 97.0538 18.7167 97.6161 18.9361C98.1783 19.1555 98.7955 19.2651 99.4674 19.2651C100.181 19.2651 100.839 19.1282 101.442 18.8539C102.046 18.5659 102.594 18.1335 103.088 17.5575L105.227 19.5325C104.542 20.3691 103.692 21.0072 102.677 21.446C101.676 21.8849 100.544 22.104 99.2822 22.104C98.1714 22.104 97.1359 21.9257 96.1759 21.5691C95.2297 21.1988 94.4068 20.6778 93.7075 20.0059C93.0081 19.3339 92.4591 18.5455 92.0614 17.6404C91.6774 16.7352 91.4857 15.7406 91.4857 14.6571C91.4857 13.5738 91.6775 12.5795 92.0614 11.6745C92.4591 10.7694 93.0081 9.98095 93.7075 9.30898C94.4206 8.63698 95.2504 8.12244 96.1966 7.76587C97.1429 7.3956 98.1784 7.21027 99.3029 7.21027Z" fill="black"/>
<path d="M85.3986 10.6255C86.5644 10.6255 87.5794 10.8719 88.4434 11.3656C89.3074 11.8456 89.9449 12.5385 90.3563 13.4436L87.8671 14.7808C87.5792 14.2597 87.216 13.8757 86.7773 13.6288C86.3521 13.3819 85.8854 13.2584 85.3779 13.2584C84.8295 13.2584 84.3358 13.382 83.897 13.6288C83.4582 13.8757 83.1085 14.2253 82.8479 14.6778C82.6011 15.1303 82.4776 15.6788 82.4775 16.3233C82.4775 16.9678 82.6011 17.5168 82.8479 17.9693C83.1085 18.4219 83.4582 18.7715 83.897 19.0184C84.3358 19.2652 84.8295 19.3887 85.3779 19.3888C85.8854 19.3888 86.3521 19.2722 86.7773 19.0391C87.2161 18.7923 87.5791 18.4012 87.8671 17.8664L90.3563 19.2243C89.9449 20.1156 89.3073 20.808 88.4434 21.3017C87.5794 21.7817 86.5644 22.0217 85.3986 22.0217C84.2056 22.0217 83.1426 21.7816 82.2101 21.3017C81.2776 20.8079 80.5439 20.1291 80.0091 19.2651C79.488 18.4011 79.2275 17.4204 79.2275 16.3233C79.2275 15.2126 79.488 14.2323 80.0091 13.3821C80.5439 12.5181 81.2775 11.8456 82.2101 11.3656C83.1426 10.8719 84.2056 10.6255 85.3986 10.6255Z" fill="black"/>
<path fill-rule="evenodd" clip-rule="evenodd" d="M137.328 10.6255C138.493 10.6255 139.536 10.8719 140.455 11.3656C141.373 11.8456 142.094 12.5111 142.615 13.3614C143.136 14.2115 143.396 15.1989 143.396 16.3233C143.396 17.4203 143.136 18.4012 142.615 19.2651C142.094 20.1153 141.373 20.7872 140.455 21.2809C139.536 21.7747 138.493 22.0217 137.328 22.0217C136.148 22.0217 135.099 21.7746 134.18 21.2809C133.275 20.7872 132.555 20.1154 132.02 19.2651C131.499 18.4011 131.239 17.4204 131.239 16.3233C131.239 15.2126 131.499 14.2323 132.02 13.3821C132.555 12.5181 133.275 11.8456 134.18 11.3656C135.099 10.872 136.148 10.6255 137.328 10.6255ZM137.328 13.2584C136.793 13.2584 136.313 13.382 135.887 13.6288C135.462 13.8757 135.12 14.2253 134.859 14.6778C134.612 15.1303 134.489 15.6788 134.489 16.3233C134.489 16.9541 134.612 17.5031 134.859 17.9693C135.12 18.4218 135.462 18.7715 135.887 19.0184C136.313 19.2652 136.793 19.3888 137.328 19.3888C137.862 19.3888 138.343 19.2652 138.768 19.0184C139.193 18.7715 139.529 18.4219 139.776 17.9693C140.023 17.5031 140.146 16.9541 140.146 16.3233C140.146 15.6789 140.023 15.1303 139.776 14.6778C139.529 14.2253 139.193 13.8757 138.768 13.6288C138.343 13.3819 137.862 13.2584 137.328 13.2584Z" fill="black"/>
<path fill-rule="evenodd" clip-rule="evenodd" d="M59.4521 7.457C60.7411 7.45703 61.8519 7.66973 62.7844 8.09483C63.717 8.50626 64.4372 9.10295 64.9446 9.88466C65.4519 10.6663 65.7055 11.5988 65.7055 12.6821C65.7055 13.7517 65.452 14.6778 64.9446 15.4594C64.4372 16.2412 63.717 16.8448 62.7844 17.27C61.8519 17.6814 60.7411 17.8871 59.4521 17.8871H56.5511V21.8572H53.2188V7.457H59.4521ZM56.5511 15.1713H59.2669C60.2953 15.1712 61.0635 14.9522 61.5709 14.5134C62.0782 14.0745 62.3318 13.4638 62.3318 12.6821C62.3317 11.8868 62.0782 11.2695 61.5709 10.8307C61.0635 10.3919 60.2953 10.1729 59.2669 10.1728H56.5511V15.1713Z" fill="black"/>
<path d="M116.15 13.4229H112.406V21.8572H109.217V13.4229H105.473V10.7899H116.15V13.4229Z" fill="black"/>
<path d="M148.792 17.3729L154.182 10.7899H157.124V21.8572H153.935V15.2742L148.566 21.8572H145.604V10.7899H148.792V17.3729Z" fill="black"/>
<path d="M149.615 6.40796C149.628 6.87425 149.759 7.24486 150.006 7.51915C150.253 7.79333 150.63 7.93033 151.137 7.93035C151.631 7.93035 152.008 7.79328 152.268 7.51915C152.543 7.24486 152.68 6.87425 152.68 6.40796H154.82C154.82 7.47767 154.511 8.28005 153.894 8.81491C153.277 9.33604 152.365 9.5965 151.158 9.59651C149.951 9.59651 149.046 9.33598 148.443 8.81491C147.839 8.28005 147.53 7.47767 147.517 6.40796H149.615Z" fill="black"/>
</svg>
