<svg width="346" height="98" viewBox="0 0 346 98" fill="none" xmlns="http://www.w3.org/2000/svg">
<circle cx="49" cy="49" r="49" fill="#FF8C00"/>
<mask id="mask0_541_420" style="mask-type:luminance" maskUnits="userSpaceOnUse" x="18" y="18" width="62" height="62">
<path d="M79.625 18.375H18.375V79.625H79.625V18.375Z" fill="white"/>
</mask>
<g mask="url(#mask0_541_420)">
<path d="M76.4898 49.2982L73.623 46.8081V70.3095C73.623 74.2642 70.4056 77.4811 66.4514 77.4811H57.8358C58.5591 76.74 59.3255 75.9167 60.0965 75.0265C60.7722 74.2466 61.4021 73.4708 61.9881 72.7003H66.4509C67.769 72.7003 68.8417 71.6277 68.8417 70.3095V42.6562L49 25.4253L29.1581 42.6562V70.3095C29.1581 71.6277 30.2304 72.7003 31.5486 72.7003H36.0119C36.5974 73.4703 37.2272 74.2466 37.9035 75.0265C38.6745 75.9162 39.4409 76.74 40.1639 77.4811H31.5486C27.5944 77.4811 24.377 74.2642 24.377 70.3095V46.8081L21.5097 49.2982L18.375 45.6883L49 19.0928L79.625 45.6883L76.4898 49.2982ZM49 54.64C47.0196 54.64 45.4138 56.2452 45.4138 58.2257C45.4138 60.2061 47.0196 61.8116 49 61.8116C50.9804 61.8116 52.5862 60.2061 52.5862 58.2257C52.5862 56.2452 50.9804 54.64 49 54.64ZM62.7427 58.9507C62.7427 62.7462 60.6367 67.101 56.483 71.8956C53.5422 75.2899 50.6313 77.671 50.5088 77.7705L49 78.9989L47.4907 77.7705C47.3682 77.671 44.4573 75.2899 41.5165 71.8956C37.3628 67.101 35.2568 62.7462 35.2568 58.9507V58.2348C35.2568 50.6567 41.4218 44.4916 49 44.4916C56.5776 44.4916 62.7427 50.6567 62.7427 58.2348V58.9507ZM57.9619 58.2348C57.9619 53.2932 53.9413 49.2727 49 49.2727C44.0584 49.2727 40.0381 53.2932 40.0381 58.2348V58.9512C40.0381 61.4893 41.8465 64.9749 45.1303 68.765C46.5541 70.4085 47.9807 71.7987 49.0066 72.7427C52.4285 69.6049 57.9614 63.5603 57.9614 58.9512L57.9619 58.2348Z" fill="white"/>
</g>
<path d="M114.784 36.4004V14.0004H124.48C126.485 14.0004 128.213 14.3311 129.664 14.9924C131.115 15.6324 132.235 16.5604 133.024 17.7764C133.813 18.9924 134.208 20.4431 134.208 22.1284C134.208 23.7924 133.813 25.2324 133.024 26.4484C132.235 27.6644 131.115 28.6031 129.664 29.2644C128.213 29.9044 126.485 30.2244 124.48 30.2244H117.664L119.968 27.8884V36.4004H114.784ZM119.968 28.4644L117.664 26.0004H124.192C125.792 26.0004 126.987 25.6591 127.776 24.9764C128.565 24.2937 128.96 23.3444 128.96 22.1284C128.96 20.8911 128.565 19.9311 127.776 19.2484C126.987 18.5657 125.792 18.2244 124.192 18.2244H117.664L119.968 15.7604V28.4644ZM139.799 42.8644C138.903 42.8644 138.017 42.7257 137.143 42.4484C136.268 42.1711 135.553 41.7871 134.998 41.2964L136.823 37.7444C137.207 38.0857 137.644 38.3524 138.135 38.5444C138.647 38.7364 139.148 38.8324 139.639 38.8324C140.343 38.8324 140.897 38.6617 141.303 38.3204C141.729 38.0004 142.113 37.4564 142.455 36.6884L143.351 34.5764L143.735 34.0324L149.911 19.1844H154.711L146.935 37.4564C146.38 38.8431 145.74 39.9311 145.015 40.7204C144.311 41.5097 143.521 42.0644 142.647 42.3844C141.793 42.7044 140.844 42.8644 139.799 42.8644ZM142.743 37.0724L135.062 19.1844H140.215L146.167 33.5844L142.743 37.0724ZM164.842 36.6564C162.986 36.6564 161.333 36.2831 159.882 35.5364C158.431 34.7684 157.29 33.7124 156.458 32.3684C155.647 31.0244 155.242 29.4991 155.242 27.7924C155.242 26.0644 155.647 24.5391 156.458 23.2164C157.29 21.8724 158.431 20.8271 159.882 20.0804C161.333 19.3124 162.986 18.9284 164.842 18.9284C166.655 18.9284 168.234 19.3124 169.578 20.0804C170.922 20.8271 171.914 21.9044 172.554 23.3124L168.682 25.3924C168.234 24.5817 167.669 23.9844 166.986 23.6004C166.325 23.2164 165.599 23.0244 164.81 23.0244C163.957 23.0244 163.189 23.2164 162.506 23.6004C161.823 23.9844 161.279 24.5284 160.874 25.2324C160.49 25.9364 160.298 26.7897 160.298 27.7924C160.298 28.7951 160.49 29.6484 160.874 30.3524C161.279 31.0564 161.823 31.6004 162.506 31.9844C163.189 32.3684 163.957 32.5604 164.81 32.5604C165.599 32.5604 166.325 32.3791 166.986 32.0164C167.669 31.6324 168.234 31.0244 168.682 30.1924L172.554 32.3044C171.914 33.6911 170.922 34.7684 169.578 35.5364C168.234 36.2831 166.655 36.6564 164.842 36.6564ZM186.439 36.7844C184.711 36.7844 183.1 36.5071 181.607 35.9524C180.135 35.3764 178.855 34.5657 177.766 33.5204C176.679 32.4751 175.825 31.2484 175.207 29.8404C174.609 28.4324 174.311 26.8857 174.311 25.2004C174.311 23.5151 174.609 21.9684 175.207 20.5604C175.825 19.1524 176.679 17.9257 177.766 16.8804C178.876 15.8351 180.167 15.0351 181.639 14.4804C183.111 13.9044 184.721 13.6164 186.471 13.6164C188.412 13.6164 190.161 13.9577 191.719 14.6404C193.297 15.3017 194.62 16.2831 195.687 17.5844L192.359 20.6564C191.591 19.7817 190.737 19.1311 189.799 18.7044C188.86 18.2564 187.836 18.0324 186.727 18.0324C185.681 18.0324 184.721 18.2031 183.847 18.5444C182.972 18.8857 182.215 19.3764 181.575 20.0164C180.935 20.6564 180.433 21.4137 180.071 22.2884C179.729 23.1631 179.559 24.1337 179.559 25.2004C179.559 26.2671 179.729 27.2377 180.071 28.1124C180.433 28.9871 180.935 29.7444 181.575 30.3844C182.215 31.0244 182.972 31.5151 183.847 31.8564C184.721 32.1977 185.681 32.3684 186.727 32.3684C187.836 32.3684 188.86 32.1551 189.799 31.7284C190.737 31.2804 191.591 30.6084 192.359 29.7124L195.687 32.7844C194.62 34.0857 193.297 35.0777 191.719 35.7604C190.161 36.4431 188.401 36.7844 186.439 36.7844ZM201.893 36.4004V22.1284L203.013 23.2804H196.069V19.1844H212.677V23.2804H205.733L206.853 22.1284V36.4004H201.893ZM225.482 36.6564C224.031 36.6564 222.762 36.3364 221.674 35.6964C220.586 35.0564 219.732 34.0857 219.114 32.7844C218.516 31.4617 218.218 29.7977 218.218 27.7924C218.218 25.7657 218.506 24.1017 219.082 22.8004C219.658 21.4991 220.49 20.5284 221.578 19.8884C222.666 19.2484 223.967 18.9284 225.482 18.9284C227.103 18.9284 228.554 19.3017 229.833 20.0484C231.135 20.7737 232.159 21.7977 232.906 23.1204C233.674 24.4431 234.058 26.0004 234.058 27.7924C234.058 29.6057 233.674 31.1737 232.906 32.4964C232.159 33.8191 231.135 34.8431 229.833 35.5684C228.554 36.2937 227.103 36.6564 225.482 36.6564ZM215.306 42.6084V19.1844H220.074V22.7044L219.978 27.8244L220.298 32.9124V42.6084H215.306ZM224.618 32.5604C225.45 32.5604 226.186 32.3684 226.826 31.9844C227.487 31.6004 228.01 31.0564 228.394 30.3524C228.799 29.6271 229.002 28.7737 229.002 27.7924C229.002 26.7897 228.799 25.9364 228.394 25.2324C228.01 24.5284 227.487 23.9844 226.826 23.6004C226.186 23.2164 225.45 23.0244 224.618 23.0244C223.786 23.0244 223.039 23.2164 222.378 23.6004C221.716 23.9844 221.194 24.5284 220.81 25.2324C220.426 25.9364 220.234 26.7897 220.234 27.7924C220.234 28.7737 220.426 29.6271 220.81 30.3524C221.194 31.0564 221.716 31.6004 222.378 31.9844C223.039 32.3684 223.786 32.5604 224.618 32.5604ZM245.62 36.6564C243.786 36.6564 242.154 36.2724 240.724 35.5044C239.316 34.7364 238.196 33.6911 237.364 32.3684C236.554 31.0244 236.148 29.4991 236.148 27.7924C236.148 26.0644 236.554 24.5391 237.364 23.2164C238.196 21.8724 239.316 20.8271 240.724 20.0804C242.154 19.3124 243.786 18.9284 245.62 18.9284C247.434 18.9284 249.055 19.3124 250.484 20.0804C251.914 20.8271 253.034 21.8617 253.844 23.1844C254.655 24.5071 255.06 26.0431 255.06 27.7924C255.06 29.4991 254.655 31.0244 253.844 32.3684C253.034 33.6911 251.914 34.7364 250.484 35.5044C249.055 36.2724 247.434 36.6564 245.62 36.6564ZM245.62 32.5604C246.452 32.5604 247.199 32.3684 247.86 31.9844C248.522 31.6004 249.044 31.0564 249.428 30.3524C249.812 29.6271 250.004 28.7737 250.004 27.7924C250.004 26.7897 249.812 25.9364 249.428 25.2324C249.044 24.5284 248.522 23.9844 247.86 23.6004C247.199 23.2164 246.452 23.0244 245.62 23.0244C244.788 23.0244 244.042 23.2164 243.38 23.6004C242.719 23.9844 242.186 24.5284 241.78 25.2324C241.396 25.9364 241.204 26.7897 241.204 27.7924C241.204 28.7737 241.396 29.6271 241.78 30.3524C242.186 31.0564 242.719 31.6004 243.38 31.9844C244.042 32.3684 244.788 32.5604 245.62 32.5604ZM258.494 36.4004V19.1844H263.454V29.4244L271.838 19.1844H276.414V36.4004H271.454V26.1604L263.102 36.4004H258.494ZM267.134 17.3284C265.256 17.3284 263.848 16.9231 262.91 16.1124C261.971 15.2804 261.491 14.0324 261.47 12.3684H264.734C264.755 13.0937 264.958 13.6697 265.342 14.0964C265.726 14.5231 266.312 14.7364 267.102 14.7364C267.87 14.7364 268.456 14.5231 268.862 14.0964C269.288 13.6697 269.502 13.0937 269.502 12.3684H272.83C272.83 14.0324 272.35 15.2804 271.39 16.1124C270.43 16.9231 269.011 17.3284 267.134 17.3284Z" fill="white"/>
<path d="M121.33 72.71C121.13 72.8633 120.877 72.97 120.57 73.03C120.263 73.09 119.937 73.12 119.59 73.12C119.17 73.12 118.777 73.05 118.41 72.91C118.043 72.7633 117.723 72.5433 117.45 72.25C117.177 71.9567 116.96 71.5833 116.8 71.13C116.64 70.67 116.56 70.1267 116.56 69.5C116.56 68.8467 116.647 68.2933 116.82 67.84C117 67.38 117.233 67.0067 117.52 66.72C117.813 66.4267 118.14 66.2133 118.5 66.08C118.86 65.9467 119.227 65.88 119.6 65.88C120 65.88 120.327 65.9033 120.58 65.95C120.833 65.99 121.05 66.0467 121.23 66.12L121.03 66.85C120.71 66.6967 120.253 66.62 119.66 66.62C119.387 66.62 119.117 66.67 118.85 66.77C118.583 66.87 118.343 67.0333 118.13 67.26C117.923 67.4867 117.757 67.7833 117.63 68.15C117.503 68.5167 117.44 68.9667 117.44 69.5C117.44 69.98 117.5 70.4 117.62 70.76C117.74 71.12 117.903 71.42 118.11 71.66C118.323 71.9 118.57 72.08 118.85 72.2C119.137 72.32 119.447 72.38 119.78 72.38C120.08 72.38 120.34 72.35 120.56 72.29C120.787 72.23 120.977 72.1533 121.13 72.06L121.33 72.71ZM125.058 68.7H123.488V73H122.688V68.7H121.118V68H125.058V68.7ZM125.852 68H126.402L126.552 68.6H126.592C126.745 68.3667 126.942 68.19 127.182 68.07C127.429 67.9433 127.709 67.88 128.022 67.88C128.689 67.88 129.185 68.0767 129.512 68.47C129.839 68.8633 130.002 69.5067 130.002 70.4C130.002 70.82 129.945 71.2 129.832 71.54C129.725 71.8733 129.572 72.1567 129.372 72.39C129.172 72.6233 128.929 72.8033 128.642 72.93C128.362 73.0567 128.049 73.12 127.702 73.12C127.455 73.12 127.259 73.1033 127.112 73.07C126.972 73.0433 126.819 72.9933 126.652 72.92V75H125.852V68ZM127.872 68.58C127.532 68.58 127.262 68.67 127.062 68.85C126.869 69.0233 126.732 69.29 126.652 69.65V72.13C126.772 72.2233 126.909 72.2967 127.062 72.35C127.215 72.3967 127.419 72.42 127.672 72.42C128.132 72.42 128.495 72.25 128.762 71.91C129.035 71.5633 129.172 71.0567 129.172 70.39C129.172 70.1167 129.149 69.87 129.102 69.65C129.055 69.4233 128.979 69.2333 128.872 69.08C128.772 68.92 128.639 68.7967 128.472 68.71C128.312 68.6233 128.112 68.58 127.872 68.58ZM130.982 70.5C130.982 69.6533 131.169 69.0067 131.542 68.56C131.922 68.1067 132.466 67.88 133.172 67.88C133.546 67.88 133.869 67.9433 134.142 68.07C134.422 68.19 134.652 68.3667 134.832 68.6C135.012 68.8267 135.146 69.1033 135.232 69.43C135.319 69.75 135.362 70.1067 135.362 70.5C135.362 71.3467 135.172 71.9967 134.792 72.45C134.419 72.8967 133.879 73.12 133.172 73.12C132.799 73.12 132.472 73.06 132.192 72.94C131.919 72.8133 131.692 72.6367 131.512 72.41C131.332 72.1767 131.199 71.9 131.112 71.58C131.026 71.2533 130.982 70.8933 130.982 70.5ZM131.812 70.5C131.812 70.7533 131.836 70.9967 131.882 71.23C131.936 71.4633 132.016 71.6667 132.122 71.84C132.229 72.0133 132.369 72.1533 132.542 72.26C132.716 72.3667 132.926 72.42 133.172 72.42C134.079 72.4267 134.532 71.7867 134.532 70.5C134.532 70.24 134.506 69.9933 134.452 69.76C134.406 69.5267 134.329 69.3233 134.222 69.15C134.116 68.9767 133.976 68.84 133.802 68.74C133.629 68.6333 133.419 68.58 133.172 68.58C132.266 68.5733 131.812 69.2133 131.812 70.5ZM139.744 70.04L139.774 69.42H139.744L139.334 70.06L137.084 73H136.624V68H137.424V71.05L137.394 71.64H137.434L137.824 71.02L140.074 68H140.544V73H139.744V70.04ZM145.273 68.7H143.703V73H142.903V68.7H141.333V68H145.273V68.7ZM149.561 72.6C149.361 72.76 149.107 72.8867 148.801 72.98C148.501 73.0733 148.181 73.12 147.841 73.12C147.461 73.12 147.131 73.06 146.851 72.94C146.571 72.8133 146.341 72.6367 146.161 72.41C145.981 72.1767 145.847 71.9 145.761 71.58C145.674 71.26 145.631 70.9 145.631 70.5C145.631 69.6467 145.821 68.9967 146.201 68.55C146.581 68.1033 147.124 67.88 147.831 67.88C148.057 67.88 148.284 67.9067 148.511 67.96C148.737 68.0067 148.941 68.1 149.121 68.24C149.301 68.38 149.447 68.58 149.561 68.84C149.674 69.0933 149.731 69.43 149.731 69.85C149.731 70.07 149.711 70.3133 149.671 70.58H146.461C146.461 70.8733 146.491 71.1333 146.551 71.36C146.611 71.5867 146.704 71.78 146.831 71.94C146.957 72.0933 147.121 72.2133 147.321 72.3C147.527 72.38 147.777 72.42 148.071 72.42C148.297 72.42 148.524 72.38 148.751 72.3C148.977 72.22 149.147 72.1267 149.261 72.02L149.561 72.6ZM147.841 68.58C147.447 68.58 147.131 68.6833 146.891 68.89C146.657 69.0967 146.517 69.45 146.471 69.95H148.951C148.951 69.4433 148.854 69.09 148.661 68.89C148.467 68.6833 148.194 68.58 147.841 68.58ZM153.454 68.7H152.004C151.984 68.98 151.964 69.2833 151.944 69.61C151.924 69.93 151.894 70.2533 151.854 70.58C151.814 70.9 151.761 71.21 151.694 71.51C151.627 71.8033 151.541 72.0633 151.434 72.29C151.334 72.5167 151.207 72.7 151.054 72.84C150.907 72.9733 150.731 73.04 150.524 73.04C150.397 73.04 150.287 73.0333 150.194 73.02C150.101 73.0067 150.017 72.9833 149.944 72.95L150.064 72.28C150.144 72.3067 150.231 72.32 150.324 72.32C150.457 72.32 150.577 72.2633 150.684 72.15C150.791 72.0367 150.884 71.8233 150.964 71.51C151.044 71.19 151.111 70.75 151.164 70.19C151.217 69.63 151.254 68.9 151.274 68H154.254V73H153.454V68.7ZM156.593 72.3C156.84 72.34 157.077 72.36 157.303 72.36C157.723 72.36 158.033 72.28 158.233 72.12C158.433 71.9533 158.533 71.72 158.533 71.42C158.533 71.1533 158.437 70.9333 158.243 70.76C158.05 70.5867 157.747 70.5 157.333 70.5C157.22 70.5 157.097 70.5033 156.963 70.51C156.83 70.5167 156.707 70.5367 156.593 70.57V72.3ZM156.593 69.91C156.753 69.8833 156.907 69.8667 157.053 69.86C157.2 69.8467 157.34 69.84 157.473 69.84C157.82 69.84 158.113 69.88 158.353 69.96C158.593 70.0333 158.787 70.1367 158.933 70.27C159.087 70.4033 159.197 70.5633 159.263 70.75C159.33 70.93 159.363 71.1233 159.363 71.33C159.363 71.9367 159.18 72.3767 158.813 72.65C158.453 72.9233 157.89 73.06 157.123 73.06C156.697 73.06 156.253 73.04 155.793 73V68H156.593V69.91ZM163.735 72.67C163.535 72.8167 163.298 72.9267 163.025 73C162.751 73.08 162.465 73.12 162.165 73.12C161.778 73.12 161.451 73.06 161.185 72.94C160.918 72.8133 160.698 72.6367 160.525 72.41C160.358 72.1767 160.235 71.9 160.155 71.58C160.081 71.2533 160.045 70.8933 160.045 70.5C160.045 69.6533 160.231 69.0067 160.605 68.56C160.978 68.1067 161.515 67.88 162.215 67.88C162.535 67.88 162.805 67.9067 163.025 67.96C163.251 68.0067 163.455 68.0767 163.635 68.17L163.405 68.86C163.251 68.7733 163.081 68.7067 162.895 68.66C162.708 68.6067 162.508 68.58 162.295 68.58C161.348 68.58 160.875 69.22 160.875 70.5C160.875 70.7533 160.898 70.9967 160.945 71.23C160.998 71.4567 161.081 71.66 161.195 71.84C161.315 72.0133 161.468 72.1533 161.655 72.26C161.848 72.3667 162.085 72.42 162.365 72.42C162.605 72.42 162.818 72.3833 163.005 72.31C163.198 72.2367 163.355 72.1533 163.475 72.06L163.735 72.67ZM167.87 68.7H166.3V73H165.5V68.7H163.93V68H167.87V68.7ZM168.665 68.01C168.898 67.9967 169.141 67.98 169.395 67.96C169.655 67.94 169.975 67.93 170.355 67.93C171.015 67.93 171.488 68.0333 171.775 68.24C172.061 68.44 172.205 68.7467 172.205 69.16C172.205 69.3933 172.135 69.6233 171.995 69.85C171.861 70.07 171.638 70.2333 171.325 70.34V70.38C171.718 70.4533 171.995 70.59 172.155 70.79C172.315 70.99 172.395 71.2567 172.395 71.59C172.395 72.11 172.208 72.4867 171.835 72.72C171.461 72.9533 170.901 73.07 170.155 73.07C169.875 73.07 169.615 73.06 169.375 73.04C169.135 73.0267 168.898 73.01 168.665 72.99V68.01ZM169.465 72.33C169.591 72.3433 169.715 72.3533 169.835 72.36C169.961 72.3667 170.108 72.37 170.275 72.37C170.721 72.37 171.051 72.3067 171.265 72.18C171.485 72.0533 171.595 71.8367 171.595 71.53C171.595 71.29 171.501 71.0967 171.315 70.95C171.135 70.7967 170.811 70.72 170.345 70.72H169.465V72.33ZM170.445 70.11C170.565 70.11 170.681 70.09 170.795 70.05C170.908 70.01 171.008 69.9567 171.095 69.89C171.188 69.8167 171.261 69.7333 171.315 69.64C171.375 69.5467 171.405 69.4467 171.405 69.34C171.405 69.0733 171.325 68.89 171.165 68.79C171.005 68.6833 170.725 68.63 170.325 68.63C170.111 68.63 169.941 68.6333 169.815 68.64C169.695 68.6467 169.578 68.6533 169.465 68.66V70.11H170.445ZM173.375 70.5C173.375 69.6533 173.561 69.0067 173.935 68.56C174.315 68.1067 174.858 67.88 175.565 67.88C175.938 67.88 176.261 67.9433 176.535 68.07C176.815 68.19 177.045 68.3667 177.225 68.6C177.405 68.8267 177.538 69.1033 177.625 69.43C177.711 69.75 177.755 70.1067 177.755 70.5C177.755 71.3467 177.565 71.9967 177.185 72.45C176.811 72.8967 176.271 73.12 175.565 73.12C175.191 73.12 174.865 73.06 174.585 72.94C174.311 72.8133 174.085 72.6367 173.905 72.41C173.725 72.1767 173.591 71.9 173.505 71.58C173.418 71.2533 173.375 70.8933 173.375 70.5ZM174.205 70.5C174.205 70.7533 174.228 70.9967 174.275 71.23C174.328 71.4633 174.408 71.6667 174.515 71.84C174.621 72.0133 174.761 72.1533 174.935 72.26C175.108 72.3667 175.318 72.42 175.565 72.42C176.471 72.4267 176.925 71.7867 176.925 70.5C176.925 70.24 176.898 69.9933 176.845 69.76C176.798 69.5267 176.721 69.3233 176.615 69.15C176.508 68.9767 176.368 68.84 176.195 68.74C176.021 68.6333 175.811 68.58 175.565 68.58C174.658 68.5733 174.205 69.2133 174.205 70.5ZM186.102 74.27H185.562L185.412 73H181.652L181.502 74.27H180.962V72.3H181.552C181.605 72.2267 181.675 72.0967 181.762 71.91C181.849 71.7167 181.932 71.45 182.012 71.11C182.099 70.7633 182.172 70.3367 182.232 69.83C182.299 69.3167 182.339 68.7067 182.352 68H185.372V72.3H186.102V74.27ZM184.572 72.3V68.7H183.072C183.059 68.98 183.035 69.2867 183.002 69.62C182.969 69.9467 182.922 70.2767 182.862 70.61C182.809 70.9367 182.739 71.2467 182.652 71.54C182.565 71.8333 182.465 72.0867 182.352 72.3H184.572ZM186.812 70.5C186.812 69.6533 186.999 69.0067 187.372 68.56C187.752 68.1067 188.296 67.88 189.002 67.88C189.376 67.88 189.699 67.9433 189.972 68.07C190.252 68.19 190.482 68.3667 190.662 68.6C190.842 68.8267 190.976 69.1033 191.062 69.43C191.149 69.75 191.192 70.1067 191.192 70.5C191.192 71.3467 191.002 71.9967 190.622 72.45C190.249 72.8967 189.709 73.12 189.002 73.12C188.629 73.12 188.302 73.06 188.022 72.94C187.749 72.8133 187.522 72.6367 187.342 72.41C187.162 72.1767 187.029 71.9 186.942 71.58C186.856 71.2533 186.812 70.8933 186.812 70.5ZM187.642 70.5C187.642 70.7533 187.666 70.9967 187.712 71.23C187.766 71.4633 187.846 71.6667 187.952 71.84C188.059 72.0133 188.199 72.1533 188.372 72.26C188.546 72.3667 188.756 72.42 189.002 72.42C189.909 72.4267 190.362 71.7867 190.362 70.5C190.362 70.24 190.336 69.9933 190.282 69.76C190.236 69.5267 190.159 69.3233 190.052 69.15C189.946 68.9767 189.806 68.84 189.632 68.74C189.459 68.6333 189.249 68.58 189.002 68.58C188.096 68.5733 187.642 69.2133 187.642 70.5ZM196.584 70.03L196.644 69.08H196.594L196.234 69.85L195.024 71.81H194.744L193.484 69.85L193.154 69.08H193.114L193.194 70.02V73H192.454V68H193.244L194.644 70.24L194.934 70.82H194.954L195.254 70.22L196.564 68H197.364V73H196.584V70.03ZM198.619 70.5C198.619 69.6533 198.806 69.0067 199.179 68.56C199.559 68.1067 200.102 67.88 200.809 67.88C201.182 67.88 201.506 67.9433 201.779 68.07C202.059 68.19 202.289 68.3667 202.469 68.6C202.649 68.8267 202.782 69.1033 202.869 69.43C202.956 69.75 202.999 70.1067 202.999 70.5C202.999 71.3467 202.809 71.9967 202.429 72.45C202.056 72.8967 201.516 73.12 200.809 73.12C200.436 73.12 200.109 73.06 199.829 72.94C199.556 72.8133 199.329 72.6367 199.149 72.41C198.969 72.1767 198.836 71.9 198.749 71.58C198.662 71.2533 198.619 70.8933 198.619 70.5ZM199.449 70.5C199.449 70.7533 199.472 70.9967 199.519 71.23C199.572 71.4633 199.652 71.6667 199.759 71.84C199.866 72.0133 200.006 72.1533 200.179 72.26C200.352 72.3667 200.562 72.42 200.809 72.42C201.716 72.4267 202.169 71.7867 202.169 70.5C202.169 70.24 202.142 69.9933 202.089 69.76C202.042 69.5267 201.966 69.3233 201.859 69.15C201.752 68.9767 201.612 68.84 201.439 68.74C201.266 68.6333 201.056 68.58 200.809 68.58C199.902 68.5733 199.449 69.2133 199.449 70.5ZM204.26 68.01C204.494 67.9967 204.737 67.98 204.99 67.96C205.25 67.94 205.57 67.93 205.95 67.93C206.61 67.93 207.084 68.0333 207.37 68.24C207.657 68.44 207.8 68.7467 207.8 69.16C207.8 69.3933 207.73 69.6233 207.59 69.85C207.457 70.07 207.234 70.2333 206.92 70.34V70.38C207.314 70.4533 207.59 70.59 207.75 70.79C207.91 70.99 207.99 71.2567 207.99 71.59C207.99 72.11 207.804 72.4867 207.43 72.72C207.057 72.9533 206.497 73.07 205.75 73.07C205.47 73.07 205.21 73.06 204.97 73.04C204.73 73.0267 204.494 73.01 204.26 72.99V68.01ZM205.06 72.33C205.187 72.3433 205.31 72.3533 205.43 72.36C205.557 72.3667 205.704 72.37 205.87 72.37C206.317 72.37 206.647 72.3067 206.86 72.18C207.08 72.0533 207.19 71.8367 207.19 71.53C207.19 71.29 207.097 71.0967 206.91 70.95C206.73 70.7967 206.407 70.72 205.94 70.72H205.06V72.33ZM206.04 70.11C206.16 70.11 206.277 70.09 206.39 70.05C206.504 70.01 206.604 69.9567 206.69 69.89C206.784 69.8167 206.857 69.7333 206.91 69.64C206.97 69.5467 207 69.4467 207 69.34C207 69.0733 206.92 68.89 206.76 68.79C206.6 68.6833 206.32 68.63 205.92 68.63C205.707 68.63 205.537 68.6333 205.41 68.64C205.29 68.6467 205.174 68.6533 205.06 68.66V70.11H206.04ZM119.78 80.7H117.57V85H116.77V80H120.58V85H119.78V80.7ZM121.842 82.5C121.842 81.6533 122.028 81.0067 122.402 80.56C122.782 80.1067 123.325 79.88 124.032 79.88C124.405 79.88 124.728 79.9433 125.002 80.07C125.282 80.19 125.512 80.3667 125.692 80.6C125.872 80.8267 126.005 81.1033 126.092 81.43C126.178 81.75 126.222 82.1067 126.222 82.5C126.222 83.3467 126.032 83.9967 125.652 84.45C125.278 84.8967 124.738 85.12 124.032 85.12C123.658 85.12 123.332 85.06 123.052 84.94C122.778 84.8133 122.552 84.6367 122.372 84.41C122.192 84.1767 122.058 83.9 121.972 83.58C121.885 83.2533 121.842 82.8933 121.842 82.5ZM122.672 82.5C122.672 82.7533 122.695 82.9967 122.742 83.23C122.795 83.4633 122.875 83.6667 122.982 83.84C123.088 84.0133 123.228 84.1533 123.402 84.26C123.575 84.3667 123.785 84.42 124.032 84.42C124.938 84.4267 125.392 83.7867 125.392 82.5C125.392 82.24 125.365 81.9933 125.312 81.76C125.265 81.5267 125.188 81.3233 125.082 81.15C124.975 80.9767 124.835 80.84 124.662 80.74C124.488 80.6333 124.278 80.58 124.032 80.58C123.125 80.5733 122.672 81.2133 122.672 82.5ZM131.844 86.27H131.304L131.154 85H127.394L127.244 86.27H126.704V84.3H127.294C127.348 84.2267 127.418 84.0967 127.504 83.91C127.591 83.7167 127.674 83.45 127.754 83.11C127.841 82.7633 127.914 82.3367 127.974 81.83C128.041 81.3167 128.081 80.7067 128.094 80H131.114V84.3H131.844V86.27ZM130.314 84.3V80.7H128.814C128.801 80.98 128.778 81.2867 128.744 81.62C128.711 81.9467 128.664 82.2767 128.604 82.61C128.551 82.9367 128.481 83.2467 128.394 83.54C128.308 83.8333 128.208 84.0867 128.094 84.3H130.314ZM136.76 82.75H136.3V85H135.5V80H136.3V82.26L136.73 82.12L138.33 80H139.2L137.65 82.01L137.23 82.34L137.75 82.74L139.42 85H138.43L136.76 82.75ZM143.269 80.7H141.819C141.799 80.98 141.779 81.2833 141.759 81.61C141.739 81.93 141.709 82.2533 141.669 82.58C141.629 82.9 141.575 83.21 141.509 83.51C141.442 83.8033 141.355 84.0633 141.249 84.29C141.149 84.5167 141.022 84.7 140.869 84.84C140.722 84.9733 140.545 85.04 140.339 85.04C140.212 85.04 140.102 85.0333 140.009 85.02C139.915 85.0067 139.832 84.9833 139.759 84.95L139.879 84.28C139.959 84.3067 140.045 84.32 140.139 84.32C140.272 84.32 140.392 84.2633 140.499 84.15C140.605 84.0367 140.699 83.8233 140.779 83.51C140.859 83.19 140.925 82.75 140.979 82.19C141.032 81.63 141.069 80.9 141.089 80H144.069V85H143.269V80.7ZM149.488 85.12C149.128 85.12 148.818 85.0667 148.558 84.96C148.305 84.8467 148.095 84.69 147.928 84.49C147.768 84.2833 147.645 84.0367 147.558 83.75C147.478 83.4567 147.428 83.1367 147.408 82.79H146.408V85H145.608V80H146.408V82.09H147.418C147.471 81.3767 147.665 80.83 147.998 80.45C148.338 80.07 148.841 79.88 149.508 79.88C149.875 79.88 150.185 79.9433 150.438 80.07C150.698 80.19 150.908 80.3667 151.068 80.6C151.235 80.8267 151.355 81.1033 151.428 81.43C151.501 81.75 151.538 82.1067 151.538 82.5C151.538 83.3467 151.368 83.9967 151.028 84.45C150.695 84.8967 150.181 85.12 149.488 85.12ZM148.198 82.5C148.198 82.76 148.218 83.0067 148.258 83.24C148.298 83.4733 148.368 83.68 148.468 83.86C148.568 84.0333 148.701 84.17 148.868 84.27C149.041 84.37 149.255 84.42 149.508 84.42C149.935 84.42 150.241 84.2667 150.428 83.96C150.615 83.6467 150.708 83.16 150.708 82.5C150.708 82.24 150.688 81.9933 150.648 81.76C150.615 81.5267 150.551 81.3233 150.458 81.15C150.365 80.97 150.241 80.83 150.088 80.73C149.935 80.63 149.738 80.58 149.498 80.58C149.038 80.58 148.705 80.7367 148.498 81.05C148.298 81.3567 148.198 81.84 148.198 82.5ZM153.315 80V81.36C153.315 81.54 153.325 81.7033 153.345 81.85C153.365 81.99 153.405 82.1133 153.465 82.22C153.525 82.32 153.612 82.4 153.725 82.46C153.839 82.5133 153.989 82.54 154.175 82.54C154.475 82.54 154.722 82.5067 154.915 82.44C155.109 82.3733 155.255 82.3 155.355 82.22V80H156.155V85H155.355V82.9C155.249 82.9667 155.089 83.04 154.875 83.12C154.669 83.2 154.382 83.24 154.015 83.24C153.769 83.24 153.552 83.2133 153.365 83.16C153.179 83.1067 153.022 83.0133 152.895 82.88C152.769 82.7467 152.672 82.57 152.605 82.35C152.545 82.13 152.515 81.8533 152.515 81.52V80H153.315Z" fill="white"/>
</svg>
