<svg width="126" height="56" viewBox="0 0 126 56" fill="none" xmlns="http://www.w3.org/2000/svg">
<rect x="0.5" y="0.5" width="125" height="55" rx="4.5" fill="white" stroke="#D9D9D9"/>
<circle cx="21.5" cy="27.5" r="16.5" fill="#FF8C00"/>
<mask id="mask0_603_388" style="mask-type:luminance" maskUnits="userSpaceOnUse" x="11" y="19" width="21" height="22">
<path d="M31.8125 19.0356H11.1875V40.9786H31.8125V19.0356Z" fill="white"/>
</mask>
<g mask="url(#mask0_603_388)">
<path d="M30.7568 30.1139L29.7914 29.2218V37.6413C29.7914 39.058 28.708 40.2105 27.3765 40.2105H24.4753C24.7189 39.945 24.9769 39.65 25.2366 39.3311C25.4641 39.0517 25.6762 38.7738 25.8735 38.4978H27.3763C27.8202 38.4978 28.1814 38.1135 28.1814 37.6413V27.7344L21.5 21.5614L14.8185 27.7344V37.6413C14.8185 38.1135 15.1796 38.4978 15.6235 38.4978H17.1265C17.3236 38.7736 17.5357 39.0517 17.7634 39.3311C18.0231 39.6499 18.2811 39.945 18.5246 40.2105H15.6235C14.292 40.2105 13.2086 39.058 13.2086 37.6413V29.2218L12.2431 30.1139L11.1875 28.8206L21.5 19.2927L31.8125 28.8206L30.7568 30.1139ZM21.5 32.0276C20.8331 32.0276 20.2924 32.6027 20.2924 33.3122C20.2924 34.0217 20.8331 34.5968 21.5 34.5968C22.1669 34.5968 22.7076 34.0217 22.7076 33.3122C22.7076 32.6027 22.1669 32.0276 21.5 32.0276ZM26.1276 33.5719C26.1276 34.9317 25.4185 36.4918 24.0198 38.2095C23.0295 39.4255 22.0493 40.2785 22.0081 40.3142L21.5 40.7542L20.9918 40.3142C20.9505 40.2785 19.9703 39.4255 18.9801 38.2095C17.5813 36.4918 16.8722 34.9317 16.8722 33.5719V33.3155C16.8722 30.6006 18.9482 28.3919 21.5 28.3919C24.0517 28.3919 26.1276 30.6006 26.1276 33.3155V33.5719ZM24.5178 33.3155C24.5178 31.5451 23.1639 30.1048 21.5 30.1048C19.836 30.1048 18.4822 31.5451 18.4822 33.3155V33.5721C18.4822 34.4814 19.0912 35.7301 20.1969 37.0879C20.6764 37.6767 21.1568 38.1747 21.5022 38.5129C22.6545 37.3888 24.5176 35.2233 24.5176 33.5721L24.5178 33.3155Z" fill="white"/>
</g>
<path fill-rule="evenodd" clip-rule="evenodd" d="M49.829 39.4933H50.1043V40.2359H49.9004L49.8438 39.7571H48.4258L48.3692 40.2359H48.1657V39.4933H48.388C48.4081 39.4657 48.4345 39.4164 48.4672 39.346C48.4999 39.2731 48.5314 39.1726 48.5616 39.0445C48.5943 38.9137 48.6218 38.7526 48.6445 38.5615C48.6696 38.3679 48.685 38.1379 48.69 37.8714H49.829V39.4933ZM48.9612 38.1352C48.9562 38.2408 48.9475 38.3567 48.935 38.4824C48.9224 38.6055 48.9046 38.73 48.882 38.8557C48.8619 38.9789 48.8355 39.0959 48.8028 39.2065C48.7702 39.3171 48.7328 39.4129 48.69 39.4933H49.527V38.1352H48.9612Z" fill="black"/>
<path fill-rule="evenodd" clip-rule="evenodd" d="M47.1574 37.8263C47.2982 37.8263 47.4204 37.8499 47.5234 37.8977C47.629 37.9429 47.7157 38.0099 47.7836 38.0979C47.8514 38.1834 47.9019 38.2875 47.9346 38.4105C47.9672 38.5312 47.9838 38.6659 47.9838 38.8143C47.9838 39.1335 47.912 39.3786 47.7688 39.5495C47.628 39.718 47.424 39.8023 47.1574 39.8023C47.0168 39.8022 46.8937 39.7798 46.7882 39.7346C46.6852 39.6868 46.5996 39.6202 46.5318 39.5348C46.4639 39.4468 46.4135 39.3424 46.3808 39.2217C46.3481 39.0985 46.3315 38.9626 46.3315 38.8143C46.3315 38.495 46.4021 38.2512 46.5428 38.0827C46.6861 37.9118 46.891 37.8264 47.1574 37.8263ZM47.1574 38.0901C46.8156 38.0877 46.6446 38.3291 46.6446 38.8143C46.6446 38.9098 46.6537 39.0016 46.6713 39.0896C46.6914 39.1776 46.7213 39.2544 46.7615 39.3198C46.8017 39.3851 46.8546 39.4379 46.9199 39.4782C46.9852 39.5184 47.0645 39.5384 47.1574 39.5385C47.4994 39.541 47.6708 39.2995 47.6708 38.8143C47.6708 38.7163 47.6605 38.6233 47.6404 38.5353C47.6228 38.4473 47.594 38.3705 47.5538 38.3051C47.5136 38.2398 47.4608 38.1881 47.3955 38.1504C47.3301 38.1102 47.2505 38.0901 47.1574 38.0901Z" fill="black"/>
<path fill-rule="evenodd" clip-rule="evenodd" d="M56.766 37.8263C56.9042 37.8263 57.0213 37.8499 57.1168 37.8977C57.2148 37.9429 57.2941 38.01 57.3544 38.0979C57.4171 38.1833 57.4626 38.2875 57.4902 38.4105C57.5178 38.5312 57.5316 38.6659 57.5316 38.8143C57.5316 39.1335 57.4673 39.3785 57.3392 39.5495C57.2135 39.718 57.0197 39.8023 56.7582 39.8023C56.6225 39.8022 56.5054 39.7822 56.4074 39.742C56.3119 39.6992 56.2326 39.6401 56.1698 39.5647C56.1095 39.4868 56.063 39.3938 56.0303 39.2857C56.0002 39.1751 55.9813 39.0545 55.9737 38.9239H55.5967V39.7571H55.2951V37.8714H55.5967V38.6596H55.9778C55.998 38.3906 56.0708 38.1846 56.1965 38.0413C56.3248 37.898 56.5146 37.8263 56.766 37.8263ZM56.7619 38.0901C56.5885 38.0902 56.4627 38.1492 56.3848 38.2674C56.3094 38.383 56.272 38.5654 56.272 38.8143C56.272 38.9123 56.2795 39.0053 56.2946 39.0933C56.3097 39.1813 56.3361 39.2593 56.3738 39.3272C56.4115 39.3925 56.4615 39.4441 56.5243 39.4818C56.5897 39.5196 56.6705 39.5385 56.766 39.5385C56.9268 39.5384 57.0423 39.4805 57.1127 39.3649C57.1831 39.2467 57.2186 39.0632 57.2186 38.8143C57.2186 38.7163 57.2111 38.6233 57.196 38.5353C57.1834 38.4473 57.1594 38.3705 57.1242 38.3051C57.089 38.2373 57.0425 38.1844 56.9847 38.1467C56.9269 38.109 56.8524 38.0901 56.7619 38.0901Z" fill="black"/>
<path d="M54.7146 39.7571H54.4126V38.1352H53.8661C53.8585 38.2408 53.8506 38.3555 53.8431 38.4787C53.8355 38.5993 53.8245 38.7215 53.8095 38.8447C53.7944 38.9652 53.7743 39.082 53.7491 39.195C53.724 39.3056 53.6913 39.4038 53.6511 39.4892C53.6134 39.5747 53.5653 39.644 53.5074 39.6968C53.4522 39.7471 53.3855 39.7723 53.3076 39.7723C53.2599 39.7723 53.2185 39.7695 53.1833 39.7645C53.1481 39.7595 53.1166 39.7508 53.089 39.7383L53.1341 39.4855C53.1642 39.4956 53.197 39.5007 53.2321 39.5007C53.2824 39.5007 53.3278 39.4794 53.368 39.4367C53.4082 39.394 53.4437 39.3132 53.4738 39.195C53.504 39.0744 53.5288 38.9084 53.5489 38.6974C53.569 38.4862 53.5832 38.2109 53.5908 37.8714H54.7146V39.7571Z" fill="black"/>
<path d="M45.8559 39.7571H45.5544V38.1352H44.7206V39.7571H44.4191V37.8714H45.8559V39.7571Z" fill="black"/>
<path d="M51.7847 38.7236L51.9468 38.6711L52.5503 37.8714H52.8786L52.2939 38.6297L52.1355 38.754L52.3316 38.905L52.9614 39.7571H52.5881L51.9583 38.9087H51.7847V39.7571H51.4832V37.8714H51.7847V38.7236Z" fill="black"/>
<path d="M58.2019 38.3843C58.2019 38.4522 58.2054 38.5141 58.213 38.5694C58.2205 38.6221 58.236 38.6687 58.2586 38.7089C58.2812 38.7465 58.314 38.7765 58.3566 38.7991C58.3993 38.8192 58.4558 38.8295 58.526 38.8295C58.6391 38.8295 58.7322 38.8168 58.805 38.7917C58.8779 38.7666 58.9335 38.739 58.9712 38.7089V37.8714H59.2728V39.7571H58.9712V38.9653C58.931 38.9904 58.8707 39.018 58.7903 39.0482C58.7124 39.0783 58.604 39.0933 58.4657 39.0933C58.3728 39.0933 58.2912 39.0834 58.2208 39.0634C58.1504 39.0432 58.0913 39.0078 58.0436 38.9575C57.9958 38.9072 57.9591 38.8406 57.934 38.7577C57.9114 38.6747 57.8999 38.5703 57.8999 38.4446V37.8714H58.2019V38.3843Z" fill="black"/>
<path fill-rule="evenodd" clip-rule="evenodd" d="M48.6624 33.5835C48.9138 33.5835 49.1013 33.6575 49.2245 33.8058C49.3477 33.9542 49.4091 34.1968 49.4092 34.5337C49.4092 34.6921 49.3879 34.8354 49.3452 34.9637C49.3049 35.0894 49.247 35.1961 49.1716 35.2841C49.0962 35.3721 49.0044 35.4403 48.8963 35.488C48.7907 35.5358 48.6725 35.5594 48.5418 35.5594C48.4488 35.5594 48.3747 35.5531 48.3194 35.5405C48.2666 35.5305 48.2087 35.5116 48.1459 35.4839V36.2684H47.8443V33.6286H48.0515L48.1081 33.8551H48.1233C48.1811 33.7671 48.2552 33.7001 48.3457 33.6548C48.4386 33.6071 48.5443 33.5835 48.6624 33.5835ZM48.6063 33.8473C48.4781 33.8473 48.376 33.8812 48.3006 33.949C48.2276 34.0144 48.176 34.1152 48.1459 34.251V35.186C48.1911 35.2212 48.2427 35.2493 48.3006 35.2694C48.3584 35.287 48.4352 35.2956 48.5307 35.2956C48.7042 35.2956 48.8413 35.2314 48.9419 35.1032C49.0449 34.9724 49.0965 34.7813 49.0966 34.53C49.0966 34.427 49.0874 34.3339 49.0699 34.251C49.0523 34.1656 49.0235 34.0938 48.9833 34.036C48.9456 33.9757 48.8951 33.9292 48.8323 33.8965C48.772 33.8639 48.6967 33.8473 48.6063 33.8473Z" fill="black"/>
<path fill-rule="evenodd" clip-rule="evenodd" d="M70.292 35.2505H70.5673V35.9931H70.3633L70.3067 35.5143H68.8887L68.8321 35.9931H68.6286V35.2505H68.851C68.8711 35.2228 68.8975 35.1736 68.9302 35.1032C68.9628 35.0303 68.9944 34.9298 69.0245 34.8016C69.0572 34.6709 69.0848 34.5098 69.1074 34.3187C69.1325 34.1251 69.148 33.8951 69.153 33.6286H70.292V35.2505ZM69.4241 33.8924C69.4191 33.998 69.4105 34.1138 69.3979 34.2395C69.3853 34.3627 69.3676 34.4872 69.345 34.6129C69.3248 34.7361 69.2985 34.853 69.2658 34.9637C69.2331 35.0743 69.1957 35.17 69.153 35.2505H69.99V33.8924H69.4241Z" fill="black"/>
<path d="M45.4863 32.8289C45.6371 32.8289 45.7604 32.838 45.8559 32.8556C45.9514 32.8707 46.033 32.892 46.1009 32.9196L46.0258 33.1949C45.9051 33.1371 45.7326 33.1083 45.5088 33.1083C45.4058 33.1084 45.3041 33.1269 45.2036 33.1645C45.103 33.2022 45.0124 33.2641 44.932 33.3496C44.854 33.4351 44.791 33.5469 44.7432 33.6852C44.6955 33.8235 44.6718 33.9933 44.6718 34.1944C44.6719 34.3754 44.6943 34.5337 44.7395 34.6695C44.7848 34.8053 44.8467 34.9183 44.9246 35.0088C45.005 35.0993 45.098 35.1675 45.2036 35.2127C45.3117 35.2579 45.4287 35.2804 45.5544 35.2804C45.6675 35.2804 45.7657 35.269 45.8486 35.2463C45.9339 35.2238 46.0054 35.1949 46.0631 35.1598L46.1386 35.4047C46.0632 35.4625 45.9679 35.5032 45.8523 35.5258C45.7366 35.5484 45.6133 35.5594 45.4826 35.5594C45.3242 35.5594 45.1757 35.533 45.0374 35.4802C44.8992 35.4249 44.7786 35.3421 44.6755 35.2316C44.5724 35.121 44.4905 34.98 44.4301 34.809C44.3698 34.6355 44.3399 34.4306 44.3399 34.1944C44.3399 33.948 44.3726 33.7392 44.438 33.5683C44.5059 33.3948 44.5937 33.2537 44.7018 33.1456C44.8124 33.035 44.9357 32.9547 45.0715 32.9044C45.2072 32.8541 45.3455 32.8289 45.4863 32.8289Z" fill="black"/>
<path fill-rule="evenodd" clip-rule="evenodd" d="M50.6048 33.5835C50.7455 33.5835 50.8677 33.6071 50.9708 33.6548C51.0764 33.7001 51.163 33.7671 51.2309 33.8551C51.2987 33.9405 51.3492 34.0446 51.3819 34.1677C51.4146 34.2884 51.4311 34.4231 51.4311 34.5714C51.4311 34.8906 51.3593 35.1357 51.2161 35.3067C51.0753 35.4751 50.8713 35.5594 50.6048 35.5594C50.4641 35.5594 50.341 35.5369 50.2355 35.4917C50.1325 35.444 50.047 35.3773 49.9791 35.2919C49.9112 35.204 49.8608 35.0995 49.8281 34.9789C49.7954 34.8557 49.7788 34.7198 49.7788 34.5714C49.7788 34.2522 49.8494 34.0083 49.9902 33.8399C50.1334 33.669 50.3383 33.5835 50.6048 33.5835ZM50.6048 33.8473C50.263 33.8448 50.0919 34.0863 50.0919 34.5714C50.0919 34.667 50.101 34.7587 50.1186 34.8467C50.1387 34.9347 50.1686 35.0116 50.2088 35.0769C50.249 35.1423 50.3019 35.1951 50.3672 35.2353C50.4325 35.2755 50.5118 35.2956 50.6048 35.2956C50.9467 35.2981 51.1181 35.0567 51.1181 34.5714C51.1181 34.4734 51.1078 34.3804 51.0877 34.2924C51.0701 34.2045 51.0414 34.1276 51.0011 34.0623C50.9609 33.9969 50.9081 33.9453 50.8428 33.9076C50.7774 33.8673 50.6978 33.8473 50.6048 33.8473Z" fill="black"/>
<path fill-rule="evenodd" clip-rule="evenodd" d="M56.1335 33.5835C56.2189 33.5835 56.3045 33.5933 56.3899 33.6134C56.4753 33.631 56.5518 33.6665 56.6196 33.7193C56.6875 33.7721 56.7431 33.8473 56.7858 33.9453C56.8286 34.0409 56.8498 34.1681 56.8498 34.3265C56.8498 34.4094 56.8423 34.5013 56.8272 34.6018H55.6164C55.6165 34.7124 55.6279 34.8106 55.6505 34.896C55.6731 34.9814 55.7082 35.0544 55.7559 35.1147C55.8037 35.1725 55.8656 35.2178 55.941 35.2505C56.0189 35.2806 56.1132 35.2956 56.2237 35.2956C56.3091 35.2956 56.3947 35.2806 56.4801 35.2505C56.5656 35.2203 56.6298 35.1848 56.6726 35.1446L56.7858 35.3633C56.7104 35.4236 56.6147 35.4717 56.499 35.5069C56.3859 35.5421 56.2653 35.5594 56.1371 35.5594C55.9939 35.5594 55.8694 35.537 55.7638 35.4917C55.6582 35.444 55.5715 35.3773 55.5037 35.2919C55.4358 35.204 55.3853 35.0995 55.3527 34.9789C55.32 34.8582 55.3034 34.7223 55.3034 34.5714C55.3034 34.2497 55.3752 34.0047 55.5184 33.8362C55.6617 33.6677 55.8669 33.5835 56.1335 33.5835ZM56.1371 33.8473C55.9889 33.8473 55.8695 33.8863 55.779 33.9642C55.691 34.0421 55.6382 34.1753 55.6206 34.3638H56.5556C56.5556 34.1729 56.5194 34.0396 56.4465 33.9642C56.3736 33.8863 56.2704 33.8473 56.1371 33.8473Z" fill="black"/>
<path d="M61.5581 33.5835C61.6788 33.5835 61.7808 33.5933 61.8638 33.6134C61.9492 33.631 62.0257 33.6574 62.0935 33.6926L62.007 33.9531C61.9491 33.9205 61.8849 33.8952 61.8145 33.8776C61.7442 33.8575 61.6689 33.8473 61.5885 33.8473C61.2315 33.8473 61.0526 34.0887 61.0526 34.5714C61.0526 34.667 61.0617 34.7587 61.0793 34.8467C61.0994 34.9322 61.1305 35.0091 61.1732 35.0769C61.2185 35.1423 61.2764 35.1951 61.3468 35.2353C61.4197 35.2755 61.5091 35.2956 61.6147 35.2956C61.7052 35.2956 61.7856 35.2818 61.856 35.2542C61.9288 35.2265 61.988 35.195 62.0332 35.1598L62.1313 35.39C62.0559 35.4452 61.9667 35.4866 61.8638 35.5143C61.7607 35.5445 61.6524 35.5594 61.5392 35.5594C61.3934 35.5594 61.2701 35.537 61.1695 35.4917C61.0691 35.444 60.9863 35.3773 60.9209 35.2919C60.8581 35.204 60.8116 35.0995 60.7814 34.9789C60.7538 34.8557 60.7396 34.7198 60.7396 34.5714C60.7396 34.2522 60.8101 34.0083 60.9509 33.8399C61.0917 33.6689 61.2941 33.5835 61.5581 33.5835Z" fill="black"/>
<path fill-rule="evenodd" clip-rule="evenodd" d="M66.5928 33.5835C66.7336 33.5835 66.8558 33.6071 66.9588 33.6548C67.0644 33.7001 67.151 33.7671 67.2189 33.8551C67.2868 33.9405 67.3373 34.0446 67.3699 34.1677C67.4026 34.2884 67.4192 34.4231 67.4192 34.5714C67.4192 34.8906 67.3474 35.1357 67.2042 35.3067C67.0634 35.4751 66.8593 35.5594 66.5928 35.5594C66.4522 35.5594 66.3291 35.5369 66.2236 35.4917C66.1206 35.444 66.035 35.3773 65.9672 35.2919C65.8993 35.204 65.8488 35.0995 65.8162 34.9789C65.7835 34.8557 65.7669 34.7198 65.7669 34.5714C65.7669 34.2522 65.8375 34.0083 65.9782 33.8399C66.1215 33.669 66.3264 33.5835 66.5928 33.5835ZM66.5928 33.8473C66.251 33.8448 66.08 34.0863 66.08 34.5714C66.08 34.667 66.0891 34.7587 66.1067 34.8467C66.1268 34.9347 66.1567 35.0116 66.1969 35.0769C66.2371 35.1423 66.2899 35.1951 66.3553 35.2353C66.4206 35.2755 66.4999 35.2956 66.5928 35.2956C66.9348 35.2981 67.1061 35.0567 67.1061 34.5714C67.1061 34.4734 67.0959 34.3804 67.0758 34.2924C67.0582 34.2045 67.0294 34.1276 66.9892 34.0623C66.949 33.9969 66.8962 33.9453 66.8308 33.9076C66.7655 33.8673 66.6858 33.8473 66.5928 33.8473Z" fill="black"/>
<path fill-rule="evenodd" clip-rule="evenodd" d="M71.6607 33.5835C71.8014 33.5835 71.9236 33.6071 72.0267 33.6548C72.1323 33.7001 72.2189 33.7671 72.2868 33.8551C72.3546 33.9405 72.4051 34.0446 72.4378 34.1677C72.4705 34.2884 72.4871 34.4231 72.4871 34.5714C72.4871 34.8906 72.4152 35.1357 72.2721 35.3067C72.1313 35.4751 71.9272 35.5594 71.6607 35.5594C71.52 35.5594 71.397 35.5369 71.2914 35.4917C71.1884 35.444 71.1029 35.3773 71.035 35.2919C70.9672 35.204 70.9167 35.0995 70.884 34.9789C70.8513 34.8557 70.8348 34.7198 70.8348 34.5714C70.8348 34.2522 70.9053 34.0083 71.0461 33.8399C71.1893 33.669 71.3943 33.5835 71.6607 33.5835ZM71.6607 33.8473C71.3189 33.8448 71.1478 34.0863 71.1478 34.5714C71.1478 34.667 71.1569 34.7587 71.1745 34.8467C71.1946 34.9347 71.2245 35.0116 71.2647 35.0769C71.305 35.1423 71.3578 35.1951 71.4231 35.2353C71.4884 35.2755 71.5677 35.2956 71.6607 35.2956C72.0026 35.2981 72.174 35.0567 72.174 34.5714C72.174 34.4734 72.1637 34.3804 72.1436 34.2924C72.126 34.2045 72.0973 34.1276 72.0571 34.0623C72.0169 33.9969 71.964 33.9453 71.8987 33.9076C71.8333 33.8673 71.7537 33.8473 71.6607 33.8473Z" fill="black"/>
<path fill-rule="evenodd" clip-rule="evenodd" d="M76.1135 33.5835C76.2542 33.5835 76.3764 33.6071 76.4795 33.6548C76.5851 33.7001 76.6717 33.7671 76.7396 33.8551C76.8074 33.9405 76.8579 34.0446 76.8906 34.1677C76.9233 34.2884 76.9398 34.4231 76.9398 34.5714C76.9398 34.8906 76.868 35.1357 76.7248 35.3067C76.584 35.4751 76.38 35.5594 76.1135 35.5594C75.9728 35.5594 75.8497 35.5369 75.7442 35.4917C75.6412 35.444 75.5557 35.3773 75.4878 35.2919C75.4199 35.204 75.3695 35.0995 75.3368 34.9789C75.3041 34.8557 75.2875 34.7198 75.2875 34.5714C75.2875 34.2522 75.3581 34.0083 75.4989 33.8399C75.6421 33.669 75.8471 33.5835 76.1135 33.5835ZM76.1135 33.8473C75.7717 33.8448 75.6006 34.0863 75.6006 34.5714C75.6006 34.667 75.6097 34.7587 75.6273 34.8467C75.6474 34.9347 75.6773 35.0116 75.7175 35.0769C75.7577 35.1423 75.8106 35.1951 75.8759 35.2353C75.9412 35.2755 76.0205 35.2956 76.1135 35.2956C76.4554 35.2981 76.6268 35.0567 76.6268 34.5714C76.6268 34.4734 76.6165 34.3804 76.5964 34.2924C76.5788 34.2045 76.5501 34.1276 76.5098 34.0623C76.4696 33.9969 76.4168 33.9453 76.3515 33.9076C76.2861 33.8673 76.2065 33.8473 76.1135 33.8473Z" fill="black"/>
<path fill-rule="evenodd" clip-rule="evenodd" d="M64.6279 33.6023C64.8768 33.6023 65.0552 33.6414 65.1633 33.7193C65.2714 33.7947 65.3258 33.9101 65.3259 34.0659C65.3259 34.1539 65.2995 34.241 65.2467 34.3265C65.1964 34.4094 65.112 34.4709 64.9939 34.5111V34.5263C65.1422 34.554 65.2466 34.6056 65.307 34.681C65.3672 34.7564 65.3972 34.8569 65.3972 34.9825C65.3972 35.1786 65.3271 35.3209 65.1864 35.4089C65.0456 35.4969 64.834 35.5405 64.5524 35.5405C64.4469 35.5405 64.3487 35.537 64.2582 35.5295C64.1678 35.5245 64.0787 35.5181 63.9908 35.5106V33.6323C64.0787 33.6272 64.1706 33.6209 64.2661 33.6134C64.3641 33.6058 64.4847 33.6023 64.6279 33.6023ZM64.2923 35.2615C64.34 35.2666 64.3866 35.2705 64.4318 35.273C64.4796 35.2756 64.5351 35.2767 64.598 35.2767C64.7664 35.2767 64.8909 35.2527 64.9714 35.2049C65.0542 35.1571 65.0956 35.0755 65.0957 34.96C65.0957 34.8696 65.0605 34.7966 64.9902 34.7413C64.9223 34.6835 64.8002 34.6543 64.6242 34.6543H64.2923V35.2615ZM64.4244 33.8698C64.3792 33.8723 64.335 33.8751 64.2923 33.8776V34.4246H64.662C64.7072 34.4246 64.7514 34.4166 64.7941 34.4016C64.8368 34.3865 64.8743 34.3663 64.9069 34.3412C64.9421 34.3136 64.9701 34.2821 64.9902 34.2469C65.0127 34.2118 65.0238 34.1742 65.0238 34.1341C65.0238 34.0335 64.9939 33.9642 64.9336 33.9264C64.8733 33.8862 64.7676 33.8661 64.6169 33.8661C64.5364 33.8661 64.4722 33.8673 64.4244 33.8698Z" fill="black"/>
<path fill-rule="evenodd" clip-rule="evenodd" d="M78.0526 33.6023C78.3014 33.6023 78.4799 33.6414 78.588 33.7193C78.6961 33.7947 78.7505 33.9101 78.7505 34.0659C78.7505 34.1539 78.7241 34.241 78.6713 34.3265C78.621 34.4094 78.5367 34.4709 78.4186 34.5111V34.5263C78.5669 34.554 78.6713 34.6056 78.7316 34.681C78.7919 34.7564 78.8219 34.8569 78.8219 34.9825C78.8219 35.1786 78.7518 35.3209 78.611 35.4089C78.4702 35.4969 78.2587 35.5405 77.9771 35.5405C77.8715 35.5405 77.7734 35.537 77.6829 35.5295C77.5925 35.5245 77.5033 35.5181 77.4154 35.5106V33.6323C77.5034 33.6272 77.5952 33.6209 77.6907 33.6134C77.7887 33.6058 77.9094 33.6023 78.0526 33.6023ZM77.717 35.2615C77.7647 35.2666 77.8112 35.2705 77.8565 35.273C77.9042 35.2756 77.9598 35.2767 78.0227 35.2767C78.191 35.2767 78.3156 35.2527 78.396 35.2049C78.4789 35.1571 78.5203 35.0755 78.5203 34.96C78.5203 34.8696 78.4852 34.7966 78.4149 34.7413C78.347 34.6835 78.2249 34.6543 78.0489 34.6543H77.717V35.2615ZM77.8491 33.8698C77.8038 33.8723 77.7597 33.8751 77.717 33.8776V34.4246H78.0866C78.1319 34.4246 78.176 34.4166 78.2188 34.4016C78.2614 34.3865 78.2989 34.3663 78.3316 34.3412C78.3668 34.3136 78.3948 34.2821 78.4149 34.2469C78.4374 34.2118 78.4485 34.1742 78.4485 34.1341C78.4485 34.0335 78.4186 33.9642 78.3583 33.9264C78.298 33.8862 78.1923 33.8661 78.0415 33.8661C77.9611 33.8661 77.8969 33.8673 77.8491 33.8698Z" fill="black"/>
<path fill-rule="evenodd" clip-rule="evenodd" d="M59.4381 34.3491C59.4984 34.339 59.5563 34.3327 59.6116 34.3302C59.6669 34.3252 59.7197 34.3224 59.77 34.3224C59.9007 34.3224 60.0114 34.3378 60.1019 34.3679C60.1924 34.3956 60.2653 34.4346 60.3206 34.4849C60.3784 34.5352 60.4198 34.5954 60.4449 34.6658C60.47 34.7337 60.4827 34.8066 60.4827 34.8845C60.4827 35.1132 60.4137 35.2791 60.2755 35.3822C60.1397 35.4852 59.927 35.5368 59.6379 35.5368C59.477 35.5368 59.3099 35.5294 59.1365 35.5143V33.6286H59.4381V34.3491ZM59.5776 34.5751C59.5273 34.5776 59.4808 34.5851 59.4381 34.5977V35.2505C59.5311 35.2656 59.6205 35.273 59.706 35.273C59.8643 35.273 59.9814 35.2427 60.0568 35.1824C60.1321 35.1195 60.1696 35.0316 60.1696 34.9186C60.1696 34.818 60.1334 34.7349 60.0605 34.6695C59.9876 34.6041 59.8729 34.5714 59.717 34.5714C59.6743 34.5714 59.6278 34.5726 59.5776 34.5751Z" fill="black"/>
<path d="M58.556 35.5143H58.254V33.8924H57.7075C57.6999 33.998 57.692 34.1126 57.6845 34.2358C57.6769 34.3565 57.6659 34.4786 57.6509 34.6018C57.6358 34.7224 57.6157 34.8391 57.5906 34.9522C57.5654 35.0627 57.5327 35.1609 57.4925 35.2463C57.4548 35.3318 57.4067 35.4012 57.3489 35.454C57.2936 35.5042 57.2269 35.5295 57.1491 35.5295C57.1013 35.5295 57.0599 35.5267 57.0247 35.5217C56.9895 35.5166 56.958 35.508 56.9304 35.4954L56.9755 35.2427C57.0056 35.2527 57.0384 35.2578 57.0735 35.2579C57.1238 35.2579 57.1692 35.2365 57.2094 35.1939C57.2496 35.1511 57.2851 35.0703 57.3152 34.9522C57.3454 34.8315 57.3702 34.6656 57.3903 34.4545C57.4104 34.2433 57.4246 33.968 57.4322 33.6286H58.556V35.5143Z" fill="black"/>
<path d="M47.5446 33.8924H46.9526V35.5143H46.651V33.8924H46.0585V33.6286H47.5446V33.8924Z" fill="black"/>
<path d="M52.2083 34.7791L52.1972 35.0014H52.2119L52.3593 34.7676L53.2077 33.6286H53.385V35.5143H53.0834V34.3979L53.0945 34.164H53.0834L52.9288 34.4057L52.0803 35.5143H51.9067V33.6286H52.2083V34.7791Z" fill="black"/>
<path d="M55.1685 33.8924H54.5765V35.5143H54.2749V33.8924H53.6824V33.6286H55.1685V33.8924Z" fill="black"/>
<path d="M63.691 33.8924H63.099V35.5143H62.7974V33.8924H62.2049V33.6286H63.691V33.8924Z" fill="black"/>
<path d="M73.7885 34.4734L73.8977 34.6921H73.9055L74.0187 34.466L74.5127 33.6286H74.8143V35.5143H74.5201V34.3942L74.5426 34.036H74.5238L74.388 34.3265L73.9317 35.0654H73.8263L73.3512 34.3265L73.2264 34.036H73.2112L73.2416 34.3905V35.5143H72.9626V33.6286H73.2605L73.7885 34.4734Z" fill="black"/>
<path d="M58.2936 24.4242L60.5862 18.9125H62.8495L59.1835 27.5262C58.922 28.18 58.6203 28.6932 58.2784 29.0653C57.9465 29.4374 57.5743 29.6989 57.1619 29.8498C56.7597 30.0006 56.3122 30.0758 55.8195 30.0758C55.3971 30.0758 54.9796 30.0104 54.5672 29.8797C54.1549 29.749 53.8177 29.5682 53.5563 29.3369L54.4162 27.6621C54.5973 27.823 54.8037 27.9486 55.035 28.0391C55.2763 28.1296 55.5127 28.1749 55.744 28.1749C56.0758 28.1749 56.3374 28.0946 56.5285 27.9337C56.7295 27.7828 56.9104 27.5263 57.0712 27.1644L57.0998 27.0963L53.5866 18.9125H56.0156L58.2936 24.4242Z" fill="black"/>
<path fill-rule="evenodd" clip-rule="evenodd" d="M96.2127 18.7919C96.9771 18.7919 97.6612 18.968 98.2646 19.32C98.8779 19.6619 99.3606 20.1445 99.7125 20.7679C100.075 21.3914 100.256 22.1256 100.256 22.9703C100.256 23.8252 100.075 24.5644 99.7125 25.188C99.3605 25.8115 98.878 26.2944 98.2646 26.6363C97.6612 26.9783 96.9771 27.1492 96.2127 27.1492C95.5289 27.1492 94.9306 26.9983 94.4177 26.6966C94.177 26.5551 93.961 26.3788 93.769 26.1686V29.9552H91.4156V18.9125H93.6631V19.8503C93.8661 19.6053 94.1023 19.4032 94.3721 19.2445C94.885 18.9428 95.4987 18.7919 96.2127 18.7919ZM95.8053 20.7228C95.4132 20.7228 95.0613 20.8134 94.7496 20.9944C94.4379 21.1754 94.1913 21.4318 94.0103 21.7637C93.8292 22.0955 93.7387 22.4977 93.7386 22.9703C93.7386 23.433 93.8292 23.8355 94.0103 24.1774C94.1913 24.5093 94.4379 24.7657 94.7496 24.9467C95.0613 25.1277 95.4132 25.2183 95.8053 25.2184C96.1975 25.2184 96.5445 25.1277 96.8462 24.9467C97.1579 24.7657 97.4045 24.5093 97.5856 24.1774C97.7766 23.8355 97.8724 23.433 97.8724 22.9703C97.8724 22.4977 97.7766 22.0955 97.5856 21.7637C97.4045 21.4318 97.158 21.1754 96.8462 20.9944C96.5445 20.8134 96.1975 20.7228 95.8053 20.7228Z" fill="black"/>
<path d="M77.8219 16.2875C78.7371 16.2875 79.5619 16.4486 80.296 16.7704C81.0401 17.0822 81.6637 17.5446 82.1665 18.158L80.5976 19.6063C80.2355 19.194 79.8334 18.8872 79.3909 18.686C78.9484 18.4748 78.4655 18.3693 77.9426 18.3693C77.4498 18.3693 76.9972 18.4497 76.5849 18.6105C76.1725 18.7715 75.8153 19.0031 75.5136 19.3048C75.212 19.6065 74.9756 19.9634 74.8046 20.3756C74.6437 20.7879 74.5634 21.2457 74.5634 21.7485C74.5634 22.2513 74.6437 22.709 74.8046 23.1213C74.9756 23.5337 75.2119 23.8909 75.5136 24.1926C75.8153 24.4943 76.1726 24.7255 76.5849 24.8864C76.9972 25.0473 77.4498 25.1277 77.9426 25.1277C78.4655 25.1277 78.9484 25.0273 79.3909 24.8261C79.8334 24.6149 80.2355 24.2978 80.5976 23.8754L82.1665 25.3238C81.6637 25.9373 81.0402 26.4052 80.296 26.727C79.5618 27.0489 78.732 27.2095 77.8067 27.2095C76.9921 27.2095 76.2328 27.0787 75.5288 26.8173C74.8349 26.5457 74.2315 26.1637 73.7186 25.6709C73.2057 25.1781 72.8031 24.5999 72.5115 23.9362C72.2299 23.2724 72.0893 22.543 72.0893 21.7485C72.0893 20.9541 72.2299 20.2249 72.5115 19.5612C72.8031 18.8975 73.2057 18.3193 73.7186 17.8265C74.2415 17.3337 74.85 16.9564 75.544 16.6949C76.2379 16.4234 76.9973 16.2875 77.8219 16.2875Z" fill="black"/>
<path d="M67.6254 18.7919C68.4803 18.7919 69.2247 18.9727 69.8583 19.3347C70.4919 19.6867 70.9593 20.1948 71.2611 20.8586L69.4357 21.8392C69.2245 21.4571 68.9582 21.1754 68.6364 20.9944C68.3247 20.8134 67.9824 20.7228 67.6103 20.7228C67.208 20.7228 66.846 20.8134 66.5242 20.9944C66.2024 21.1754 65.946 21.4318 65.7549 21.7637C65.5739 22.0955 65.4833 22.4977 65.4833 22.9703C65.4833 23.443 65.5739 23.8456 65.7549 24.1774C65.946 24.5093 66.2024 24.7657 66.5242 24.9467C66.846 25.1277 67.208 25.2183 67.6103 25.2184C67.9824 25.2184 68.3247 25.1329 68.6364 24.9619C68.9582 24.7809 69.2245 24.4941 69.4357 24.1019L71.2611 25.0977C70.9594 25.7513 70.4918 26.2591 69.8583 26.6211C69.2247 26.9731 68.4803 27.1492 67.6254 27.1492C66.7505 27.1492 65.971 26.9731 65.2872 26.6211C64.6033 26.2591 64.0653 25.7612 63.6731 25.1277C63.2909 24.4941 63.0999 23.7749 63.0999 22.9703C63.0999 22.1558 63.291 21.4369 63.6731 20.8135C64.0653 20.1799 64.6033 19.6867 65.2872 19.3347C65.971 18.9727 66.7505 18.7919 67.6254 18.7919Z" fill="black"/>
<path fill-rule="evenodd" clip-rule="evenodd" d="M105.707 18.7919C106.562 18.7919 107.326 18.9727 108 19.3347C108.674 19.6867 109.202 20.1747 109.584 20.7983C109.966 21.4217 110.157 22.1458 110.157 22.9703C110.157 23.7748 109.966 24.4941 109.584 25.1277C109.202 25.7512 108.674 26.2439 108 26.6059C107.326 26.968 106.562 27.1492 105.707 27.1492C104.842 27.1492 104.073 26.968 103.399 26.6059C102.735 26.2439 102.207 25.7512 101.815 25.1277C101.432 24.4941 101.241 23.7749 101.241 22.9703C101.241 22.1558 101.433 21.4369 101.815 20.8135C102.207 20.1799 102.735 19.6867 103.399 19.3347C104.073 18.9727 104.842 18.7919 105.707 18.7919ZM105.707 20.7228C105.314 20.7228 104.962 20.8134 104.651 20.9944C104.339 21.1754 104.087 21.4318 103.896 21.7637C103.715 22.0955 103.625 22.4977 103.625 22.9703C103.625 23.433 103.715 23.8355 103.896 24.1774C104.087 24.5093 104.339 24.7657 104.651 24.9467C104.962 25.1278 105.314 25.2184 105.707 25.2184C106.099 25.2184 106.451 25.1278 106.763 24.9467C107.075 24.7657 107.321 24.5093 107.502 24.1774C107.683 23.8355 107.773 23.4329 107.773 22.9703C107.773 22.4978 107.683 22.0955 107.502 21.7637C107.321 21.4318 107.075 21.1754 106.763 20.9944C106.451 20.8134 106.099 20.7228 105.707 20.7228Z" fill="black"/>
<path fill-rule="evenodd" clip-rule="evenodd" d="M48.598 16.4684C49.5432 16.4684 50.3578 16.6244 51.0417 16.9361C51.7255 17.2379 52.2537 17.6754 52.6258 18.2487C52.9979 18.8219 53.1838 19.5057 53.1838 20.3001C53.1838 21.0845 52.9979 21.7636 52.6258 22.3368C52.2537 22.9101 51.7255 23.3528 51.0417 23.6646C50.3578 23.9663 49.5432 24.1171 48.598 24.1171H46.4705V27.0286H44.0269V16.4684H48.598ZM46.4705 22.1255H48.4622C49.2163 22.1255 49.7797 21.9649 50.1517 21.6431C50.5238 21.3212 50.7097 20.8734 50.7097 20.3001C50.7097 19.7169 50.5238 19.2643 50.1517 18.9425C49.7797 18.6207 49.2163 18.46 48.4622 18.46H46.4705V22.1255Z" fill="black"/>
<path d="M90.1762 20.8434H87.4305V27.0286H85.0922V20.8434H82.3465V18.9125H90.1762V20.8434Z" fill="black"/>
<path d="M114.114 23.7401L118.066 18.9125H120.224V27.0286H117.886V22.201L113.948 27.0286H111.776V18.9125H114.114V23.7401Z" fill="black"/>
<path d="M114.717 15.6991C114.727 16.041 114.823 16.3128 115.004 16.514C115.185 16.715 115.462 16.8155 115.834 16.8155C116.196 16.8155 116.472 16.715 116.663 16.514C116.864 16.3128 116.965 16.041 116.965 15.6991H118.534C118.534 16.4836 118.308 17.072 117.855 17.4642C117.403 17.8464 116.734 18.0374 115.849 18.0374C114.964 18.0374 114.3 17.8463 113.858 17.4642C113.415 17.072 113.189 16.4836 113.179 15.6991H114.717Z" fill="black"/>
</svg>
