<svg width="56" height="56" viewBox="0 0 56 56" fill="none" xmlns="http://www.w3.org/2000/svg">
<rect x="0.5" y="0.5" width="55" height="55" rx="4.5" fill="white" stroke="#D9D9D9"/>
<circle cx="28.5" cy="27.5" r="23.5" fill="#FF8C00"/>
<mask id="mask0_603_389" style="mask-type:luminance" maskUnits="userSpaceOnUse" x="13" y="15" width="31" height="32">
<path d="M43.1875 15.4447H13.8125V46.6968H43.1875V15.4447Z" fill="white"/>
</mask>
<g mask="url(#mask0_603_389)">
<path d="M41.6839 31.2228L40.309 29.9522V41.9435C40.309 43.9614 38.766 45.6028 36.8696 45.6028H32.7376C33.0845 45.2246 33.452 44.8045 33.8218 44.3503C34.1459 43.9524 34.4479 43.5565 34.729 43.1634H36.8693C37.5015 43.1634 38.0159 42.6161 38.0159 41.9435V27.8337L28.5 19.0419L18.984 27.8337V41.9435C18.984 42.6161 19.4983 43.1634 20.1305 43.1634H22.271C22.5518 43.5563 22.8539 43.9524 23.1782 44.3503C23.548 44.8043 23.9155 45.2246 24.2623 45.6028H20.1305C18.234 45.6028 16.691 43.9614 16.691 41.9435V29.9522L15.3159 31.2228L13.8125 29.3808L28.5 15.8108L43.1875 29.3808L41.6839 31.2228ZM28.5 33.9483C27.5502 33.9483 26.7801 34.7674 26.7801 35.7779C26.7801 36.7884 27.5502 37.6076 28.5 37.6076C29.4498 37.6076 30.2199 36.7884 30.2199 35.7779C30.2199 34.7674 29.4498 33.9483 28.5 33.9483ZM35.0909 36.1478C35.0909 38.0844 34.0809 40.3065 32.0888 42.7528C30.6784 44.4847 29.2824 45.6997 29.2236 45.7504L28.5 46.3772L27.7762 45.7504C27.7174 45.6997 26.3214 44.4847 24.911 42.7528C22.9189 40.3065 21.9089 38.0844 21.9089 36.1478V35.7826C21.9089 31.9159 24.8656 28.7703 28.5 28.7703C32.1342 28.7703 35.0909 31.9159 35.0909 35.7826V36.1478ZM32.7981 35.7826C32.7981 33.2612 30.8698 31.2097 28.5 31.2097C26.13 31.2097 24.2019 33.2612 24.2019 35.7826V36.1481C24.2019 37.4431 25.0692 39.2216 26.6441 41.1555C27.327 41.9941 28.0112 42.7034 28.5032 43.185C30.1443 41.584 32.7978 38.4998 32.7978 36.1481L32.7981 35.7826Z" fill="white"/>
</g>
</svg>
